<svg xmlns="http://www.w3.org/2000/svg" width="444" height="444" fill="none"><g clip-path="url(#a)"><path fill="#E74B00" fill-opacity=".6" d="M425.493 424.555c-49.424 49.424-187.84-8.681-268.561-89.402-49.424-49.424-49.424-129.556 0-178.981 49.424-49.424 129.557-49.424 178.981 0 80.721 80.721 139.004 218.959 89.58 268.383Z"/><path fill="#E74B00" fill-opacity=".6" d="M2.277 311.692c-18.09-67.515 101.438-158.335 211.704-187.881 67.514-18.09 136.912 21.977 155.003 89.492 18.09 67.514-21.977 136.911-89.492 155.002C169.226 397.85 20.367 379.207 2.277 311.692Z"/><path fill="#E74B00" d="M311.804 2.572c67.515 18.09 86.403 167.016 56.857 277.282-18.09 67.515-87.488 107.581-155.003 89.49-67.514-18.091-107.58-87.487-89.49-155.002 29.546-110.266 120.121-229.86 187.636-211.77Z" opacity=".7"/><path fill="#fff" fill-rule="evenodd" d="M299.939 241.548c-7.265 5.187-14.63 10.263-22.342 14.544-12.749 7.076-11.587-4.65-4.811-12.848 4.231-5.119 12.369-11.512 12.037-18.817-.424-9.312-8.396-8.778-13.714-4.595-11.971 9.413-23.793 18.988-35.986 28.111 4.273-6.393 22.166-26.937 11.308-33.626-7.103-4.377-21.383 9.418-25.961 13.703-6.294 5.89-16.678 16.224-25.068 24.391l.312-15.299a16.728 16.728 0 0 1 6.948-13.234l27.573-19.861a16.735 16.735 0 0 1 11.458-3.07l33.81 3.414a16.726 16.726 0 0 1 12.634 7.986l11.419 18.879a16.725 16.725 0 0 1 2.414 8.746 322.8 322.8 0 0 1-2.031 1.576Zm-3.104 11.641-11.03 18.825a16.727 16.727 0 0 1-10.104 7.703l-35.532 9.52a16.726 16.726 0 0 1-12.602-1.618l-23.849-13.566a16.723 16.723 0 0 1-7.207-8.198c1.562-1.59 2.942-2.995 3.116-3.175 3.833-3.968 27.536-27.161 27.536-27.161s-11.062 21.076-11.988 23.054c-5.164 11.029 1.745 21.686 12.349 12.176 10.918-9.791 21.201-20.526 32.439-29.937-10.538 8.825-18.334 45.436 5.06 33.42 11.175-5.739 21.469-13.446 31.812-21.043Z" clip-rule="evenodd"/><path fill="#fff" fill-opacity=".75" d="M86.144 277.817a6.189 6.189 0 0 1 0 8.789l-34.473 34.473-11.132 1.171h-.293c-1.367 0-2.442-1.171-2.246-2.539l1.171-11.132 34.473-34.473c1.172-1.172 2.832-1.856 4.395-1.856 1.562 0 3.222.684 4.394 1.856l3.711 3.711Zm-35.84 40.234 25.781-25.781-8.105-8.105-25.781 25.781-.977 9.082 9.082-.977Zm33.594-33.593c1.27-1.27 1.27-3.223 0-4.493l-3.613-3.613c-.586-.586-1.367-.977-2.246-.977-.88 0-1.66.391-2.246.977l-5.665 5.664 8.106 8.106 5.664-5.664ZM320.022 73.285a2.9 2.9 0 0 1 0 4.297l-8.789 8.79a3.03 3.03 0 0 1-2.148.878c-.684 0-1.66-.39-2.148-.879L294.925 74.36 283.89 85.395l-10.547 1.855c-1.27.293-2.637-.879-2.344-2.343l1.855-10.547 11.036-11.035-12.012-12.012c-1.27-1.172-1.27-3.125 0-4.395l8.789-8.691c.586-.586 1.367-.977 2.148-.977.782 0 1.563.391 2.149.977l12.012 12.012 4.882-4.883 6.641-6.64c.977-.977 2.148-1.466 3.32-1.466 1.27 0 2.442.489 3.321 1.465l4.394 4.395a4.656 4.656 0 0 1 0 6.64l-6.64 6.641-4.883 4.883 12.011 12.011Zm-9.277-32.421-4.492 4.492 6.641 6.64 4.492-4.492c.586-.586.586-1.562 0-2.246l-4.395-4.394c-.488-.391-1.855-.391-2.246 0Zm-36.719 8.3 12.012 12.012 8.789-8.789-4.297-4.297-3.906 3.809a.766.766 0 0 1-1.074 0l-1.074-1.074a.766.766 0 0 1 0-1.075l3.808-3.906-5.469-5.371-8.789 8.691Zm8.301 33.399 28.32-28.32-6.64-6.641-28.32 28.32-1.368 8.008 8.008-1.367Zm26.758 1.66 8.789-8.789-5.469-5.469-3.906 3.809a.766.766 0 0 1-1.074 0l-1.074-1.074a.766.766 0 0 1 0-1.075l3.808-3.906-4.297-4.297-8.789 8.79 12.012 12.011ZM380.875 384.25c-6.934 0-12.5-5.566-12.5-12.5 0-6.836 5.566-12.5 12.5-12.5 6.836 0 12.5 5.664 12.5 12.5 0 6.934-5.664 12.5-12.5 12.5Zm0-21.875c-5.176 0-9.375 4.297-9.375 9.375 0 5.176 4.199 9.375 9.375 9.375 5.078 0 9.375-4.199 9.375-9.375 0-5.078-4.297-9.375-9.375-9.375Zm9.082 25.098c7.129.195 12.793 5.957 12.695 13.086v7.91c0 .488-.293.781-.781.781h-1.562a.77.77 0 0 1-.782-.781v-7.91c0-5.274-4.101-9.57-9.375-9.961v7.226c2.735.684 4.688 3.125 4.688 5.957v3.125c0 .489-.098.879-.391 1.172l-1.074.977a.766.766 0 0 1-1.074 0l-1.074-1.074c-.293-.293-.293-.782 0-1.172l.488-.488v-2.344c0-1.563-.977-3.028-2.539-3.223-1.953-.293-3.711 1.172-3.711 3.027v2.54l.586.488c.293.39.293.879 0 1.172l-1.074 1.074a.767.767 0 0 1-1.075 0l-1.074-.977c-.293-.293-.391-.683-.391-1.172v-2.832c0-2.929 1.856-5.566 4.688-6.25v-6.738c-2.051.684-4.199.977-6.25.977-2.148 0-4.297-.293-6.25-.977v7.52c2.246.683 3.906 2.734 3.906 5.175 0 3.028-2.539 5.469-5.469 5.469a5.46 5.46 0 0 1-5.468-5.469c0-2.441 1.562-4.492 3.906-5.175v-8.008c-5.273.293-9.375 4.687-9.375 9.961v7.91a.77.77 0 0 1-.781.781h-1.563c-.488 0-.781-.293-.781-.781v-7.91c0-7.129 5.664-12.891 12.695-13.086 3.321-.098 4.297 1.465 9.18 1.465 4.785 0 5.762-1.563 9.082-1.465Zm-14.551 16.308c0-1.269-1.074-2.343-2.344-2.343-1.367 0-2.343 1.074-2.343 2.343 0 1.368.976 2.344 2.343 2.344 1.27 0 2.344-.976 2.344-2.344Z"/></g><defs><clipPath id="a"><path fill="#fff" d="M-120-7214h1440V786H-120z"/></clipPath></defs></svg>