<?xml version="1.0" standalone="no"?>
<!DOCTYPE svg PUBLIC "-//W3C//DTD SVG 20010904//EN"
 "http://www.w3.org/TR/2001/REC-SVG-20010904/DTD/svg10.dtd">
<svg version="1.0" xmlns="http://www.w3.org/2000/svg"
 width="800.000000pt" height="800.000000pt" viewBox="0 0 800.000000 800.000000"
 preserveAspectRatio="xMidYMid meet">
<metadata>
Created by potrace 1.11, written by Peter Selinger 2001-2013
</metadata>
<g transform="translate(0.000000,800.000000) scale(0.100000,-0.100000)"
fill="#000000" stroke="none">
<path d="M0 5948 l0 -2052 43 41 c114 109 1849 1713 1962 1814 494 440 918
730 1248 853 166 62 254 79 394 74 120 -4 122 -4 210 -48 272 -134 383 -413
308 -771 -27 -129 -103 -339 -181 -499 -164 -339 -371 -661 -757 -1180 -214
-287 -288 -390 -281 -390 20 0 1078 814 2259 1739 446 349 846 658 890 686
160 105 327 163 490 172 121 7 191 -6 283 -53 167 -83 265 -256 292 -515 23
-231 -45 -461 -213 -716 -116 -175 -207 -283 -541 -638 -314 -334 -419 -471
-536 -705 -103 -207 -149 -368 -150 -526 0 -113 20 -182 67 -235 64 -71 101
-84 233 -83 103 0 125 4 210 33 52 17 141 54 197 80 264 126 902 515 1391 848
l182 124 0 2000 0 1999 -4000 0 -4000 0 0 -2052z"/>
<path d="M1625 4202 c-324 -316 -823 -804 -1107 -1084 l-518 -510 0 -1304 0
-1304 4000 0 4000 0 0 1575 c0 866 -3 1575 -6 1575 -3 0 -45 -29 -93 -63
-1002 -735 -1648 -1160 -2279 -1497 -392 -209 -603 -280 -836 -280 -175 0
-289 43 -397 150 -170 169 -240 439 -218 847 34 642 327 1423 702 1873 44 52
69 86 56 74 -13 -11 -73 -63 -134 -115 -347 -298 -642 -569 -1410 -1295 -754
-713 -1110 -1038 -1244 -1139 -218 -164 -450 -239 -627 -202 -179 38 -312 158
-388 348 -99 252 -83 574 44 891 44 112 142 301 692 1346 198 376 358 685 356
687 -1 1 -268 -256 -593 -573z"/>
</g>
</svg>
