<svg xmlns="http://www.w3.org/2000/svg" width="648" height="385" fill="none"><g clip-path="url(#a)"><path fill="#fff" d="M648-119H0v527h648v-527Z"/><path fill="#fff" fill-rule="evenodd" d="M0-119h648v527H0v-527Z" clip-rule="evenodd"/><path fill="#F5F5F5" fill-rule="evenodd" d="M614.88 323.98h-.01l-.02.02c-24.2 16.2-54.31 36.36-111.2 36.36-56.9 0-87.02-20.17-111.21-36.38-20.48-13.72-35.29-23.62-68-23.62-32.7 0-47.5 9.91-67.98 23.62l-.03.02c-24.2 16.2-54.31 36.36-111.2 36.36-56.9 0-87.02-20.16-111.22-36.37H34c-3.46-2.32-6.75-4.53-10-6.6v-68.5c22.64 7.36 38.97 18.29 53.23 27.83l.02.01c15.48 10.37 27.72 18.57 46.9 21.95 8 11.39 19.85 19.68 19.85 19.68s11.54-8.07 19.53-19.23c20.82-3.05 33.47-11.52 49.7-22.38 21.44-14.36 47.52-31.82 92.72-35.63A94.73 94.73 0 0 0 324 258.36s10.24-7.16 18.1-17.31c45.74 3.66 72.01 21.25 93.57 35.7 15.95 10.68 28.47 19.05 48.69 22.23 8 11.23 19.64 19.38 19.64 19.38s11.73-8.2 19.73-19.5c19.77-3.27 32.17-11.56 47.92-22.11h.01c14.08-9.44 30.16-20.2 52.34-27.56v68.76a583.6 583.6 0 0 0-9.12 6.03Z" clip-rule="evenodd"/><path fill="#EDF4FF" fill-rule="evenodd" d="M117 279.2c0-15.02 12.07-27.2 26.96-27.2h.08c14.89 0 26.96 12.18 26.96 27.2 0 19.91-27 38.8-27 38.8s-27-18.89-27-38.8Z" clip-rule="evenodd"/><path fill="#E3FFF2" fill-rule="evenodd" d="M297 220.2c0-15.02 12.07-27.2 26.96-27.2h.08c14.89 0 26.96 12.18 26.96 27.2 0 19.91-27 38.8-27 38.8s-27-18.89-27-38.8Z" clip-rule="evenodd"/><path fill="#F4FFDC" fill-rule="evenodd" d="M477 279.2c0-15.02 12.07-27.2 26.96-27.2h.08c14.89 0 26.96 12.18 26.96 27.2 0 19.91-27 38.8-27 38.8s-27-18.89-27-38.8Z" clip-rule="evenodd"/><path fill="#EDF4FF" stroke="#4E88E7" stroke-width="2" d="M60 61a12 12 0 0 1 12-12h144a12 12 0 0 1 12 12v96a12 12 0 0 1-12 12h-59.61a1 1 0 0 0-.68.26l-9.68 8.88a3 3 0 0 1-4.06 0l-9.68-8.88a1 1 0 0 0-.68-.26H72a12 12 0 0 1-12-12V61Z"/><path fill="#4E88E7" d="M79.32 135v-10.58h4.32c1.11 0 1.97.27 2.58.8.61.52.92 1.25.92 2.19a2.9 2.9 0 0 1-.42 1.59c-.28.43-.66.76-1.16.99-.49.23-1.06.34-1.73.34l.28-.19h.3c.4 0 .77.1 1.09.3a2 2 0 0 1 .78 1l1.5 3.56h-1.36l-1.45-3.5c-.16-.44-.42-.74-.76-.87a3.37 3.37 0 0 0-1.27-.2h-2.38V135h-1.24Zm1.25-5.55h2.89c.8 0 1.4-.17 1.82-.51.41-.35.63-.85.63-1.5s-.22-1.14-.63-1.48c-.42-.34-1.02-.52-1.82-.52h-2.9v4.01Zm12.18 5.69a3.77 3.77 0 0 1-2.79-1.02 3.9 3.9 0 0 1-1.02-2.87c0-.79.15-1.47.45-2.06.3-.59.72-1.04 1.26-1.36a3.5 3.5 0 0 1 1.86-.5c.7 0 1.27.15 1.74.44.47.29.83.7 1.08 1.24.25.53.38 1.17.38 1.9v.44h-5.84v-.76h5.04l-.25.2c0-.8-.18-1.43-.54-1.88-.36-.45-.9-.67-1.6-.67-.76 0-1.34.26-1.76.79a3.27 3.27 0 0 0-.63 2.12v.13c0 .94.23 1.66.69 2.15.47.47 1.12.72 1.96.72a3.54 3.54 0 0 0 2.4-.87l.42.85a3.4 3.4 0 0 1-1.26.75 4.9 4.9 0 0 1-1.59.25Zm7.98 0c-.74 0-1.38-.16-1.93-.48a3.27 3.27 0 0 1-1.26-1.37 4.71 4.71 0 0 1-.44-2.1c0-.82.15-1.51.45-2.09a3.1 3.1 0 0 1 1.26-1.31c.55-.3 1.2-.46 1.92-.46.48 0 .95.09 1.4.26a3 3 0 0 1 1.14.72l-.44.87a2.97 2.97 0 0 0-2.02-.86c-.78 0-1.39.25-1.82.74-.43.49-.64 1.2-.64 2.15 0 .92.21 1.64.64 2.16.43.5 1.04.76 1.82.76a2.92 2.92 0 0 0 2.02-.84l.44.86c-.31.31-.7.56-1.16.73-.46.17-.92.25-1.38.25Zm7.2 0a3.22 3.22 0 0 1-3.12-1.81 4.68 4.68 0 0 1-.43-2.1c0-.8.15-1.5.44-2.08.29-.58.7-1.03 1.23-1.34a3.64 3.64 0 0 1 1.89-.48c.73 0 1.36.17 1.89.48.54.31.95.76 1.24 1.34.3.58.45 1.28.45 2.09 0 .8-.15 1.49-.45 2.08-.29.58-.7 1.03-1.24 1.35-.53.31-1.16.47-1.9.47Zm0-1c.73 0 1.3-.24 1.72-.73.42-.5.63-1.22.63-2.17 0-.97-.22-1.69-.65-2.18a2.1 2.1 0 0 0-1.7-.75 2.1 2.1 0 0 0-1.69.75c-.42.49-.63 1.22-.63 2.18 0 .94.21 1.67.63 2.17.42.49.99.74 1.7.74Zm8.8 4.2c-.65 0-1.25-.08-1.8-.24a4.59 4.59 0 0 1-1.48-.73l.36-.91a5.08 5.08 0 0 0 1.84.8c.32.08.66.11 1.02.11.74 0 1.3-.2 1.68-.59.38-.38.57-.94.57-1.66v-2.2h.15a2.46 2.46 0 0 1-.99 1.4c-.5.34-1.08.52-1.75.52-.7 0-1.3-.16-1.8-.46-.5-.3-.9-.74-1.17-1.3a4.65 4.65 0 0 1-.4-2.01c0-.76.13-1.42.4-1.98.28-.56.67-.99 1.17-1.29a3.4 3.4 0 0 1 1.8-.47 3 3 0 0 1 1.75.52c.5.34.83.8 1 1.4l-.16-.15.14-1.63h1.18a12.62 12.62 0 0 0-.12 1.74v5.75c0 1.11-.29 1.96-.87 2.53-.57.57-1.4.85-2.52.85Zm-.18-4.5c.73 0 1.3-.24 1.73-.72.42-.49.63-1.17.63-2.05a3 3 0 0 0-.63-2.04c-.42-.48-1-.72-1.73-.72-.72 0-1.3.24-1.72.72a2.95 2.95 0 0 0-.65 2.04c0 .88.22 1.56.65 2.06.43.47 1 .72 1.72.72Zm5.9 1.16v-5.79c0-.28 0-.56-.04-.86l-.07-.88h1.17l.15 1.65h-.18c.22-.58.57-1.02 1.05-1.32a3.1 3.1 0 0 1 1.7-.47c.88 0 1.55.25 2 .73.46.47.7 1.21.7 2.23V135h-1.22v-4.63c0-.72-.15-1.23-.44-1.55-.28-.33-.72-.5-1.32-.5-.7 0-1.25.22-1.66.65-.41.43-.62 1-.62 1.72V135h-1.21Zm8.8 0v-7.53h1.21V135h-1.21Zm-.15-9.24v-1.37h1.5v1.37h-1.5Zm3.28 9.24v-.81l5.08-6.09.01.31h-5.09v-.94h6.22v.81l-5.13 6.12-.02-.34h5.31v.94h-6.38Zm8.22 0v-7.53h1.21V135h-1.21Zm-.15-9.24v-1.37h1.5v1.37h-1.5Zm3.72 9.24v-5.79a24.33 24.33 0 0 0-.12-1.74h1.17l.15 1.65h-.18c.22-.58.57-1.02 1.05-1.32a3.1 3.1 0 0 1 1.7-.47c.89 0 1.56.25 2 .73.47.47.7 1.21.7 2.23V135h-1.22v-4.63c0-.72-.14-1.23-.43-1.55-.28-.33-.72-.5-1.32-.5-.7 0-1.26.22-1.67.65-.4.43-.61 1-.61 1.72V135h-1.22Zm12.1 3.34c-.64 0-1.24-.08-1.8-.24a4.59 4.59 0 0 1-1.48-.73l.36-.91a5.08 5.08 0 0 0 1.85.8c.32.08.66.11 1.02.11.74 0 1.3-.2 1.68-.59.38-.38.57-.94.57-1.66v-2.2h.15a2.46 2.46 0 0 1-1 1.4c-.5.34-1.08.52-1.75.52-.69 0-1.29-.16-1.8-.46-.5-.3-.89-.74-1.17-1.3a4.65 4.65 0 0 1-.4-2.01c0-.76.13-1.42.4-1.98.28-.56.67-.99 1.17-1.29a3.4 3.4 0 0 1 1.8-.47 3 3 0 0 1 1.76.52c.5.34.83.8.99 1.4l-.15-.15.13-1.63h1.19a12.62 12.62 0 0 0-.12 1.74v5.75c0 1.11-.3 1.96-.87 2.53-.57.57-1.41.85-2.52.85Zm-.17-4.5c.73 0 1.3-.24 1.72-.72.42-.49.63-1.17.63-2.05a3 3 0 0 0-.63-2.04c-.42-.48-1-.72-1.72-.72s-1.3.24-1.73.72a2.95 2.95 0 0 0-.64 2.04c0 .88.21 1.56.64 2.06.43.47 1 .72 1.73.72Zm9.81 1.16v-7.53h1.22V135h-1.22Zm-.15-9.24v-1.37h1.5v1.37h-1.5Zm6.23 9.37c-.6 0-1.16-.07-1.68-.23-.52-.18-.95-.41-1.29-.71l.42-.85c.37.28.77.5 1.2.64.44.14.9.21 1.37.21.6 0 1.05-.1 1.34-.31.31-.22.47-.53.47-.9 0-.3-.1-.52-.3-.7-.19-.18-.5-.31-.95-.41l-1.39-.29a2.79 2.79 0 0 1-1.44-.7 1.8 1.8 0 0 1-.48-1.3c0-.44.12-.82.34-1.15.24-.34.57-.6 1.01-.8a4.34 4.34 0 0 1 3.06-.05c.47.17.86.4 1.17.71l-.44.84a3.2 3.2 0 0 0-2.22-.87c-.59 0-1.03.12-1.33.36-.29.23-.44.54-.44.92a1 1 0 0 0 .28.72c.19.18.47.31.87.4l1.39.29a3.1 3.1 0 0 1 1.52.7c.34.31.5.73.5 1.26 0 .46-.12.85-.37 1.19-.25.33-.6.59-1.05.77a4.1 4.1 0 0 1-1.56.26Zm7.44 0c-.6 0-1.16-.07-1.68-.23-.52-.18-.95-.41-1.29-.71l.42-.85c.37.28.77.5 1.2.64.44.14.9.21 1.37.21.6 0 1.05-.1 1.35-.31.3-.22.46-.53.46-.9 0-.3-.1-.52-.3-.7-.19-.18-.5-.31-.94-.41l-1.4-.29a2.79 2.79 0 0 1-1.44-.7 1.8 1.8 0 0 1-.48-1.3c0-.44.12-.82.35-1.15.23-.34.56-.6 1-.8a4.34 4.34 0 0 1 3.06-.05c.47.17.86.4 1.17.71l-.43.84c-.3-.28-.65-.5-1.04-.64a3.2 3.2 0 0 0-1.18-.23c-.6 0-1.04.13-1.34.37-.29.22-.43.53-.43.91a1 1 0 0 0 .27.72c.19.18.48.31.87.4l1.4.29a3.1 3.1 0 0 1 1.5.7c.35.31.52.73.52 1.26 0 .46-.13.85-.38 1.19-.25.33-.6.59-1.05.77a4.1 4.1 0 0 1-1.56.26Zm7.6 0c-.9 0-1.57-.24-2.03-.73-.45-.49-.68-1.24-.68-2.25v-4.68h1.22v4.65c0 .69.14 1.2.42 1.53.28.32.71.48 1.3.48.66 0 1.2-.22 1.6-.64.4-.44.6-1.01.6-1.73v-4.29h1.2V135h-1.18v-1.7h.2a2.69 2.69 0 0 1-2.66 1.83Zm9.34 0a3.77 3.77 0 0 1-2.79-1.01 3.9 3.9 0 0 1-1.02-2.87c0-.79.15-1.47.45-2.06.3-.59.72-1.04 1.26-1.36a3.5 3.5 0 0 1 1.86-.5c.69 0 1.27.15 1.74.44.47.29.83.7 1.08 1.24.25.53.38 1.17.38 1.9v.44h-5.84v-.76h5.04l-.25.2c0-.8-.19-1.43-.54-1.88-.37-.45-.9-.67-1.61-.67-.75 0-1.34.26-1.75.79a3.27 3.27 0 0 0-.63 2.12v.13c0 .94.22 1.66.69 2.15.47.47 1.12.72 1.96.72a3.54 3.54 0 0 0 2.4-.87l.42.85a3.4 3.4 0 0 1-1.26.75 4.9 4.9 0 0 1-1.59.25Zm7.32 0c-.6 0-1.16-.07-1.68-.23-.52-.18-.95-.41-1.3-.71l.43-.85c.37.28.77.5 1.2.64.44.14.9.21 1.36.21.6 0 1.05-.1 1.35-.31.31-.22.47-.53.47-.9 0-.3-.1-.52-.3-.7-.2-.18-.5-.31-.95-.41l-1.4-.29a2.79 2.79 0 0 1-1.43-.7 1.8 1.8 0 0 1-.48-1.3c0-.44.11-.82.34-1.15.23-.34.57-.6 1-.8a4.34 4.34 0 0 1 3.06-.05c.48.17.87.4 1.18.71l-.44.84a3.2 3.2 0 0 0-2.22-.87c-.59 0-1.03.12-1.33.36-.3.23-.44.54-.44.92a1 1 0 0 0 .27.72c.2.18.48.31.87.4l1.4.29a3.1 3.1 0 0 1 1.51.7c.34.31.51.73.51 1.26 0 .46-.12.85-.37 1.19-.25.33-.6.59-1.05.77a4.1 4.1 0 0 1-1.56.26ZM86.9 153l-2.8-7.53h1.3l2.32 6.63h-.4l2.4-6.63h1.06l2.35 6.63h-.37l2.34-6.63h1.23l-2.8 7.53h-1.18l-2.43-6.74h.6L88.08 153h-1.19Zm11.02 0v-7.53h1.22V153h-1.22Zm-.15-9.24v-1.36h1.5v1.36h-1.5Zm6.4 9.38c-.74 0-1.3-.21-1.7-.63-.39-.44-.58-1.08-.58-1.94v-4.16h-1.47v-.94h1.47v-2.06l1.21-.34v2.4h2.16v.94h-2.16v4.03c0 .6.1 1.03.3 1.28.21.25.52.38.93.38.2 0 .36-.01.51-.04.15-.05.29-.09.4-.14v1.02c-.13.06-.3.1-.5.13-.2.05-.38.06-.57.06Zm2.57-.14v-11.04h1.22v5.17h-.2c.21-.59.56-1.03 1.05-1.33a3.2 3.2 0 0 1 1.72-.47c.9 0 1.58.25 2.02.74.44.48.66 1.21.66 2.19V153h-1.22v-4.66c0-.7-.14-1.22-.42-1.53-.27-.32-.71-.49-1.32-.49-.7 0-1.26.22-1.68.65-.41.43-.61 1-.61 1.7V153h-1.22Zm8.79 0v-7.53h1.21V153h-1.21Zm-.15-9.24v-1.36h1.5v1.36h-1.5Zm3.72 9.24v-5.79a24.33 24.33 0 0 0-.12-1.74h1.17l.15 1.65h-.18c.22-.58.57-1.02 1.05-1.32a3.1 3.1 0 0 1 1.7-.47c.89 0 1.56.24 2 .72.47.47.7 1.22.7 2.24V153h-1.22v-4.63c0-.72-.14-1.23-.43-1.55-.28-.33-.72-.5-1.32-.5-.7 0-1.26.22-1.67.65-.4.43-.61 1-.61 1.72V153h-1.22Zm15.37.13c-.74 0-1.3-.2-1.7-.63-.38-.43-.58-1.07-.58-1.93v-4.16h-1.47v-.94h1.47v-2.06l1.22-.34v2.4h2.16v.94h-2.16v4.03c0 .6.1 1.03.3 1.28.2.25.52.38.93.38.19 0 .36-.01.5-.04.16-.05.3-.09.41-.14v1.02c-.14.06-.3.1-.5.13-.2.05-.39.06-.58.06Zm2.58-.13v-11.04h1.21v5.17h-.2c.22-.59.57-1.03 1.06-1.33a3.2 3.2 0 0 1 1.72-.47c.9 0 1.57.25 2.01.74.44.48.66 1.21.66 2.19V153h-1.21v-4.66c0-.7-.14-1.22-.42-1.53-.27-.32-.71-.49-1.32-.49-.7 0-1.26.22-1.68.65-.41.43-.62 1-.62 1.7V153h-1.21Zm12.13.13a3.77 3.77 0 0 1-2.79-1.01 3.9 3.9 0 0 1-1.02-2.87c0-.79.15-1.47.45-2.06.3-.59.72-1.04 1.26-1.36a3.5 3.5 0 0 1 1.86-.5c.7 0 1.27.15 1.74.44.47.29.83.7 1.08 1.24.25.53.38 1.17.38 1.9v.44h-5.84v-.76h5.04l-.25.2c0-.8-.18-1.43-.54-1.88-.36-.45-.9-.67-1.6-.67-.76 0-1.34.26-1.76.79a3.27 3.27 0 0 0-.63 2.12v.13c0 .94.23 1.66.69 2.15.47.47 1.12.72 1.96.72a3.54 3.54 0 0 0 2.4-.87l.42.85a3.4 3.4 0 0 1-1.26.75 4.9 4.9 0 0 1-1.59.25Zm11.23 0c-.6 0-1.16-.07-1.68-.23-.52-.18-.95-.41-1.29-.71l.42-.85c.37.28.77.5 1.2.64.44.14.9.21 1.37.21.6 0 1.05-.1 1.35-.31.3-.22.46-.53.46-.9 0-.3-.1-.52-.3-.7-.19-.18-.5-.31-.94-.41l-1.4-.29a2.79 2.79 0 0 1-1.44-.7 1.8 1.8 0 0 1-.48-1.3c0-.44.12-.82.35-1.15.23-.34.56-.6 1-.8a4.34 4.34 0 0 1 3.06-.04c.47.16.86.4 1.17.7l-.43.84c-.3-.28-.65-.5-1.04-.64a3.2 3.2 0 0 0-1.18-.23c-.6 0-1.04.13-1.34.37-.29.22-.43.53-.43.91a1 1 0 0 0 .27.72c.19.18.48.31.87.4l1.4.29a3.1 3.1 0 0 1 1.5.7c.35.31.52.73.52 1.26 0 .46-.13.85-.38 1.19-.25.33-.6.59-1.05.77a4.1 4.1 0 0 1-1.56.26Zm4.5 3.28-.3-1.01a5.7 5.7 0 0 0 1.18-.39c.32-.14.58-.33.8-.57.2-.24.38-.54.53-.9l.4-.88-.04.5-3.28-7.69h1.32l2.71 6.62h-.39l2.69-6.62h1.27l-3.48 8.16c-.2.48-.42.88-.66 1.2-.24.33-.5.6-.78.8-.27.2-.57.37-.9.49-.33.12-.69.22-1.08.28Zm10.62-3.28c-.6 0-1.16-.07-1.68-.23-.52-.18-.95-.41-1.3-.71l.43-.85c.37.28.77.5 1.2.64.44.14.9.21 1.36.21.6 0 1.05-.1 1.35-.31.31-.22.47-.53.47-.9 0-.3-.1-.52-.3-.7-.2-.18-.5-.31-.95-.41l-1.4-.29a2.79 2.79 0 0 1-1.43-.7 1.8 1.8 0 0 1-.48-1.3c0-.44.11-.82.34-1.15.23-.34.57-.6 1-.8a4.34 4.34 0 0 1 3.06-.04c.48.16.87.4 1.18.7l-.44.84a3.2 3.2 0 0 0-2.22-.87c-.59 0-1.03.12-1.33.36-.3.23-.44.54-.44.92a1 1 0 0 0 .27.72c.2.18.48.31.87.4l1.4.29a3.1 3.1 0 0 1 1.51.7c.34.31.51.73.51 1.26 0 .46-.12.85-.37 1.19-.25.33-.6.59-1.05.77a4.1 4.1 0 0 1-1.56.26Zm7.53 0c-.74 0-1.3-.2-1.7-.63-.38-.43-.58-1.07-.58-1.93v-4.16h-1.47v-.94h1.47v-2.06l1.22-.34v2.4h2.16v.94H182v4.03c0 .6.1 1.03.3 1.28.2.25.52.38.93.38.19 0 .36-.01.5-.04.16-.05.3-.09.41-.14v1.02c-.14.06-.3.1-.5.13-.2.05-.39.06-.58.06Zm5.85 0a3.77 3.77 0 0 1-2.8-1.01 3.9 3.9 0 0 1-1.01-2.87c0-.79.15-1.47.45-2.06.3-.59.72-1.04 1.26-1.36a3.5 3.5 0 0 1 1.86-.5c.69 0 1.27.15 1.74.44.47.29.83.7 1.08 1.24.25.53.37 1.17.37 1.9v.44h-5.83v-.76h5.04l-.26.2c0-.8-.18-1.43-.54-1.88-.36-.45-.9-.67-1.6-.67-.75 0-1.34.26-1.76.79a3.27 3.27 0 0 0-.63 2.12v.13c0 .94.23 1.66.7 2.15.46.47 1.12.72 1.96.72a3.54 3.54 0 0 0 2.4-.87l.42.85a3.4 3.4 0 0 1-1.26.75 4.9 4.9 0 0 1-1.6.25Zm4.81-.13v-5.79a24.33 24.33 0 0 0-.12-1.74h1.17l.15 1.65h-.18c.2-.57.52-1.01.95-1.32.44-.31.97-.47 1.59-.47.63 0 1.14.16 1.53.45.4.3.67.77.8 1.4h-.22c.2-.57.53-1.02 1-1.35a2.9 2.9 0 0 1 1.69-.5c.83 0 1.45.24 1.87.72.42.47.63 1.22.63 2.24V153h-1.21v-4.63c0-.72-.13-1.23-.38-1.55-.25-.33-.65-.5-1.2-.5-.63 0-1.13.22-1.5.67a2.62 2.62 0 0 0-.54 1.73V153h-1.21v-4.63c0-.72-.13-1.23-.38-1.55-.25-.33-.65-.5-1.2-.5-.63 0-1.12.22-1.48.67a2.62 2.62 0 0 0-.54 1.73V153h-1.22ZM109.42 84V69.9H112V84h-2.58Zm9.4.2c-.88 0-1.66-.2-2.34-.62a4.27 4.27 0 0 1-1.56-1.82 6.53 6.53 0 0 1-.56-2.82c0-1.1.19-2.03.56-2.8a4.14 4.14 0 0 1 3.9-2.44 4 4 0 0 1 2.22.62c.66.4 1.09.95 1.3 1.64h-.26v-6.68h2.5V84h-2.46v-2.14h.24c-.21.72-.64 1.3-1.3 1.72-.64.41-1.38.62-2.24.62Zm.7-1.92a2.4 2.4 0 0 0 1.9-.82c.48-.56.72-1.4.72-2.52s-.24-1.95-.72-2.5a2.4 2.4 0 0 0-1.9-.82c-.78 0-1.42.27-1.92.82-.48.55-.72 1.38-.72 2.5s.24 1.96.72 2.52c.5.55 1.14.82 1.92.82Zm12.67 1.92c-1.7 0-3.03-.47-3.98-1.4a5.1 5.1 0 0 1-1.45-3.84c0-1.05.21-1.97.63-2.76a4.59 4.59 0 0 1 4.32-2.5c.97 0 1.78.2 2.44.62.65.41 1.14 1 1.47 1.74.35.75.53 1.62.53 2.62v.66h-7.37v-1.32h5.59l-.34.28c0-.93-.2-1.65-.6-2.14-.4-.5-.96-.74-1.7-.74-.83 0-1.47.3-1.92.88-.44.59-.66 1.4-.66 2.46v.26c0 1.1.26 1.91.8 2.46.54.53 1.3.8 2.3.8a4.68 4.68 0 0 0 3.04-.98l.74 1.68c-.49.39-1.06.69-1.72.9-.67.21-1.38.32-2.13.32Zm6.07-.2v-7.58a19.95 19.95 0 0 0-.16-2.52h2.42l.2 2h-.24c.32-.7.8-1.25 1.42-1.62a4.07 4.07 0 0 1 2.18-.58c1.19 0 2.08.33 2.68 1 .6.67.9 1.7.9 3.12V84h-2.5v-6.06c0-.81-.16-1.4-.48-1.74-.3-.36-.77-.54-1.4-.54-.77 0-1.38.24-1.84.72a2.68 2.68 0 0 0-.68 1.92V84h-2.5Zm16.37.2c-1.2 0-2.1-.31-2.72-.94-.61-.63-.92-1.57-.92-2.82v-4.66h-1.94V73.9H151v-2.58l2.5-.64v3.22h2.7v1.88h-2.7v4.5c0 .7.14 1.18.4 1.46.27.28.64.42 1.1.42a2.9 2.9 0 0 0 1.18-.22v1.98c-.22.1-.48.16-.76.2-.26.05-.52.08-.78.08Zm3.26-.2V73.9h2.5V84h-2.5Zm-.14-12v-2.44h2.78V72h-2.78Zm6.04 12v-8.22h-1.94V73.9h2.64l-.7.64V73c0-1.25.32-2.2.96-2.84.65-.64 1.6-.96 2.86-.96.29 0 .6.02.92.06a3 3 0 0 1 .86.22v1.96a4.25 4.25 0 0 0-1.32-.22c-.35 0-.66.07-.94.2a1.5 1.5 0 0 0-.64.62c-.15.27-.22.63-.22 1.08v1.22l-.36-.44h3.02v1.88h-2.64V84h-2.5Zm6.28 4.54-.58-1.98a9.52 9.52 0 0 0 1.58-.46c.43-.17.78-.4 1.06-.68s.52-.64.7-1.08l.5-1.18-.06.98-4.4-10.24h2.66l3.16 7.88h-.58l3.18-7.88h2.52l-4.6 10.66c-.3.72-.64 1.31-1 1.78a4.93 4.93 0 0 1-2.52 1.82c-.49.16-1.03.29-1.62.38ZM100.56 108V93.9h6.26c1.55 0 2.73.37 3.54 1.12a3.97 3.97 0 0 1 1.22 3.08c0 1.3-.4 2.32-1.22 3.08-.81.76-2 1.14-3.54 1.14h-3.68V108h-2.58Zm2.58-7.72h3.38c.85 0 1.5-.19 1.92-.56.43-.39.64-.93.64-1.62 0-.7-.21-1.23-.64-1.6-.43-.39-1.07-.58-1.92-.58h-3.38v4.36Zm10.33 7.72v-7.52a21.21 21.21 0 0 0-.14-2.58h2.42l.28 2.76h-.4c.13-.67.35-1.22.66-1.66.31-.44.7-.77 1.15-.98a3.43 3.43 0 0 1 2.06-.28c.15.01.3.05.44.1l-.02 2.2a2.75 2.75 0 0 0-1.31-.24c-.58 0-1.06.12-1.47.36-.38.24-.67.57-.88 1a3.6 3.6 0 0 0-.28 1.46V108h-2.52Zm12.27.2a5.42 5.42 0 0 1-2.7-.64 4.5 4.5 0 0 1-1.78-1.82 5.95 5.95 0 0 1-.62-2.8c0-1.08.2-2 .62-2.78a4.5 4.5 0 0 1 1.78-1.82 5.43 5.43 0 0 1 2.7-.64c1.04 0 1.94.21 2.7.64a4.33 4.33 0 0 1 1.78 1.82c.43.77.64 1.7.64 2.78 0 1.08-.21 2.01-.64 2.8-.41.79-1 1.4-1.78 1.82-.76.43-1.66.64-2.7.64Zm0-1.92c.79 0 1.41-.27 1.88-.82.47-.56.7-1.4.7-2.52s-.23-1.95-.7-2.5a2.34 2.34 0 0 0-1.88-.82c-.79 0-1.41.27-1.88.82-.47.55-.7 1.38-.7 2.5s.23 1.96.7 2.52c.47.55 1.1.82 1.88.82Zm13.06 1.92c-.86 0-1.6-.2-2.24-.62-.64-.43-1.07-1-1.28-1.72h.22V108h-2.48V93.28h2.5v6.68h-.24c.22-.7.66-1.24 1.3-1.64a4 4 0 0 1 2.22-.62c.89 0 1.67.21 2.34.64a4.27 4.27 0 0 1 1.56 1.82c.37.77.56 1.7.56 2.8 0 1.1-.19 2.03-.56 2.82-.38.77-.9 1.37-1.58 1.8-.67.41-1.44.62-2.32.62Zm-.7-1.92a2.4 2.4 0 0 0 1.9-.82c.49-.55.74-1.38.74-2.5s-.25-1.95-.74-2.5a2.38 2.38 0 0 0-1.9-.84 2.4 2.4 0 0 0-1.9.82c-.48.55-.72 1.38-.72 2.5s.24 1.96.72 2.52a2.4 2.4 0 0 0 1.9.82Zm7.32 1.72V93.28h2.5V108h-2.5Zm10.1.2c-1.7 0-3.03-.47-3.99-1.4a5.1 5.1 0 0 1-1.44-3.84c0-1.05.21-1.97.62-2.76a4.59 4.59 0 0 1 4.32-2.5c.98 0 1.79.2 2.44.62.66.41 1.15 1 1.48 1.74.35.75.52 1.62.52 2.62v.66h-7.36v-1.32h5.58l-.34.28c0-.93-.2-1.65-.6-2.14-.38-.5-.95-.74-1.7-.74-.82 0-1.46.3-1.92.88-.44.59-.66 1.4-.66 2.46v.26c0 1.1.27 1.91.8 2.46.55.53 1.32.8 2.3.8a4.67 4.67 0 0 0 3.04-.98l.74 1.68c-.48.39-1.05.69-1.72.9-.66.21-1.37.32-2.12.32Zm6.07-.2v-7.58a19.95 19.95 0 0 0-.16-2.52h2.42l.2 2h-.24c.28-.7.7-1.23 1.28-1.62a3.7 3.7 0 0 1 2.08-.58c.8 0 1.46.2 1.98.58.53.37.9.96 1.12 1.76h-.32c.28-.72.74-1.29 1.38-1.7a3.88 3.88 0 0 1 2.2-.64c1.13 0 1.98.33 2.54 1 .56.67.84 1.7.84 3.12V108h-2.5v-6.08c0-.8-.13-1.37-.4-1.72-.27-.36-.7-.54-1.28-.54a2 2 0 0 0-1.64.74c-.4.48-.6 1.13-.6 1.96V108h-2.5v-6.08c0-.8-.13-1.37-.4-1.72-.27-.36-.7-.54-1.28-.54a2 2 0 0 0-1.64.74 3.04 3.04 0 0 0-.58 1.96V108h-2.5Zm21.59.2a9.1 9.1 0 0 1-2.4-.3 5.64 5.64 0 0 1-1.82-.88l.7-1.68a6.34 6.34 0 0 0 3.54 1.08c.66 0 1.16-.11 1.48-.34.33-.23.5-.53.5-.92 0-.3-.1-.55-.32-.72-.2-.19-.53-.33-.98-.42l-2-.38c-.85-.19-1.5-.5-1.96-.96a2.45 2.45 0 0 1-.66-1.78c0-.63.17-1.18.5-1.66.34-.48.83-.85 1.46-1.12a5.55 5.55 0 0 1 2.24-.42c.75 0 1.44.1 2.1.3.66.2 1.22.5 1.68.9l-.72 1.62a4.75 4.75 0 0 0-2.98-1.06c-.7 0-1.2.13-1.52.38-.32.24-.48.55-.48.94 0 .3.1.54.28.74.2.19.5.33.92.42l2 .38c.9.17 1.56.48 2.02.92.47.43.7 1.01.7 1.76 0 .67-.18 1.24-.54 1.72-.36.48-.86.85-1.5 1.1-.64.25-1.39.38-2.24.38Z"/><path fill="#F4FFDC" stroke="#92BD39" stroke-width="2" d="M420 61a12 12 0 0 1 12-12h144a12 12 0 0 1 12 12v96a12 12 0 0 1-12 12h-59.61a1 1 0 0 0-.68.26l-9.68 8.88a3 3 0 0 1-4.06 0l-9.68-8.88a1 1 0 0 0-.68-.26H432a12 12 0 0 1-12-12V61Z"/><path fill="#92BD39" d="M470.58 81V66.9h6.26c1.55 0 2.73.37 3.54 1.12a3.97 3.97 0 0 1 1.22 3.08c0 1.3-.4 2.32-1.22 3.08-.81.76-2 1.14-3.54 1.14h-3.68V81h-2.58Zm2.58-7.72h3.38c.85 0 1.5-.19 1.92-.56.43-.39.64-.93.64-1.62 0-.7-.21-1.23-.64-1.6-.43-.39-1.07-.58-1.92-.58h-3.38v4.36ZM483.48 81v-7.52a22.05 22.05 0 0 0-.13-2.58h2.41l.29 2.76h-.4c.13-.67.35-1.22.66-1.66a3 3 0 0 1 1.15-.98 3.43 3.43 0 0 1 2.06-.28c.15.01.3.05.44.1l-.01 2.2a2.77 2.77 0 0 0-1.32-.24c-.58 0-1.06.12-1.46.36a2.3 2.3 0 0 0-.88 1 3.6 3.6 0 0 0-.29 1.46V81h-2.51Zm12.6.2c-1.7 0-3.02-.47-3.98-1.4a5.1 5.1 0 0 1-1.44-3.84c0-1.05.2-1.97.62-2.76a4.58 4.58 0 0 1 4.32-2.5c.97 0 1.79.2 2.44.62.65.41 1.15 1 1.48 1.74.35.75.52 1.62.52 2.62v.66h-7.36v-1.32h5.58l-.34.28c0-.93-.2-1.65-.6-2.14-.39-.5-.95-.74-1.7-.74-.83 0-1.47.3-1.92.88-.44.59-.66 1.4-.66 2.46v.26c0 1.1.27 1.91.8 2.46.55.53 1.31.8 2.3.8a4.68 4.68 0 0 0 3.04-.98l.74 1.68c-.48.39-1.05.69-1.72.9-.67.21-1.37.32-2.12.32Zm8.88-.2-4.36-10.1h2.66l3.16 7.9h-.62l3.24-7.9h2.5L507.16 81h-2.2Zm12.6.2c-1.69 0-3.02-.47-3.98-1.4a5.1 5.1 0 0 1-1.44-3.84c0-1.05.21-1.97.62-2.76a4.59 4.59 0 0 1 4.32-2.5c.98 0 1.8.2 2.44.62.66.41 1.15 1 1.48 1.74.35.75.52 1.62.52 2.62v.66h-7.36v-1.32h5.58l-.34.28c0-.93-.2-1.65-.6-2.14-.38-.5-.95-.74-1.7-.74-.82 0-1.46.3-1.92.88-.44.59-.66 1.4-.66 2.46v.26c0 1.1.27 1.91.8 2.46.55.53 1.32.8 2.3.8a4.68 4.68 0 0 0 3.04-.98l.74 1.68c-.48.39-1.05.69-1.72.9-.66.21-1.37.32-2.12.32Zm6.08-.2v-7.58a19.95 19.95 0 0 0-.16-2.52h2.42l.2 2h-.24c.32-.7.8-1.25 1.42-1.62a4.07 4.07 0 0 1 2.18-.58c1.19 0 2.08.33 2.68 1 .6.67.9 1.7.9 3.12V81h-2.5v-6.06c0-.81-.16-1.4-.48-1.74-.3-.36-.77-.54-1.4-.54-.77 0-1.38.24-1.84.72a2.68 2.68 0 0 0-.68 1.92V81h-2.5Zm16.37.2c-1.2 0-2.1-.31-2.72-.94-.61-.63-.92-1.57-.92-2.82v-4.66h-1.94V70.9h1.94v-2.58l2.5-.64v3.22h2.7v1.88h-2.7v4.5c0 .7.13 1.18.4 1.46s.63.42 1.1.42a2.9 2.9 0 0 0 1.18-.22v1.98c-.22.1-.48.16-.76.2-.26.05-.52.08-.78.08ZM453.86 105V90.9h6.16c1.55 0 2.74.37 3.58 1.1a3.82 3.82 0 0 1 1.28 3.06c0 .87-.2 1.6-.58 2.22a3.68 3.68 0 0 1-1.62 1.42c-.7.32-1.54.48-2.5.48l.28-.38h.68c.56 0 1.06.15 1.5.44.44.3.8.74 1.08 1.34l2.06 4.42h-2.84l-2.08-4.58a1.52 1.52 0 0 0-.86-.92 3.73 3.73 0 0 0-1.36-.22h-2.2V105h-2.58Zm2.58-7.62h3.16c.9 0 1.6-.19 2.06-.56.48-.39.72-.95.72-1.68s-.24-1.29-.72-1.66c-.47-.37-1.16-.56-2.06-.56h-3.16v4.46Zm15.89 7.82c-1.7 0-3.02-.47-3.98-1.4a5.1 5.1 0 0 1-1.44-3.84c0-1.05.2-1.97.62-2.76a4.58 4.58 0 0 1 4.32-2.5c.97 0 1.78.2 2.44.62.65.41 1.14 1 1.48 1.74.35.75.52 1.62.52 2.62v.66h-7.36v-1.32h5.58l-.34.28c0-.93-.2-1.65-.6-2.14-.39-.5-.95-.74-1.7-.74-.83 0-1.47.3-1.92.88-.44.59-.66 1.4-.66 2.46v.26c0 1.1.26 1.91.8 2.46.55.53 1.31.8 2.3.8a4.67 4.67 0 0 0 3.04-.98l.74 1.68c-.48.39-1.06.69-1.72.9-.67.21-1.38.32-2.12.32Zm10.72 0a5.66 5.66 0 0 1-2.75-.64 4.47 4.47 0 0 1-1.8-1.82 5.95 5.95 0 0 1-.63-2.84c0-1.1.2-2.03.63-2.8a4.5 4.5 0 0 1 1.82-1.78 5.69 5.69 0 0 1 2.73-.62c.66 0 1.3.1 1.94.32.63.2 1.15.5 1.56.88l-.76 1.74a3.5 3.5 0 0 0-1.23-.74 3.53 3.53 0 0 0-1.3-.26c-.89 0-1.59.28-2.1.84-.49.56-.74 1.37-.74 2.44 0 1.07.25 1.89.75 2.46.5.57 1.2.86 2.1.86.4 0 .84-.08 1.28-.24.45-.16.86-.4 1.24-.74l.75 1.72c-.4.39-.94.69-1.58.9-.62.21-1.26.32-1.91.32Zm9.07 0c-1.24 0-2.16-.34-2.78-1.02-.61-.68-.92-1.72-.92-3.12V94.9h2.5v6.14c0 .75.16 1.3.46 1.66.31.35.78.52 1.4.52.71 0 1.28-.24 1.72-.72.46-.48.68-1.11.68-1.9v-5.7h2.5V105h-2.44v-2.06h.28c-.29.72-.74 1.28-1.34 1.68-.58.39-1.27.58-2.06.58Zm8.26-.2v-7.52a21.22 21.22 0 0 0-.14-2.58h2.42l.28 2.76h-.4c.13-.67.35-1.22.66-1.66.32-.44.7-.77 1.16-.98a3.43 3.43 0 0 1 2.06-.28c.14.01.29.05.44.1l-.02 2.2a2.75 2.75 0 0 0-1.32-.24c-.58 0-1.06.12-1.46.36a2.3 2.3 0 0 0-.88 1 3.6 3.6 0 0 0-.28 1.46V105h-2.52Zm7.85 0v-7.52a22.05 22.05 0 0 0-.14-2.58h2.42l.28 2.76h-.4c.13-.67.35-1.22.66-1.66a3 3 0 0 1 1.16-.98 3.43 3.43 0 0 1 2.06-.28c.14.01.3.05.44.1l-.02 2.2a2.77 2.77 0 0 0-1.32-.24c-.58 0-1.06.12-1.46.36a2.3 2.3 0 0 0-.88 1 3.6 3.6 0 0 0-.28 1.46V105h-2.52Zm12.6.2c-1.7 0-3.03-.47-3.99-1.4a5.1 5.1 0 0 1-1.44-3.84c0-1.05.21-1.97.62-2.76a4.58 4.58 0 0 1 4.32-2.5c.98 0 1.8.2 2.44.62.66.41 1.15 1 1.48 1.74.35.75.52 1.62.52 2.62v.66h-7.36v-1.32H523l-.34.28c0-.93-.2-1.65-.6-2.14-.38-.5-.95-.74-1.7-.74-.82 0-1.46.3-1.92.88-.44.59-.66 1.4-.66 2.46v.26c0 1.1.27 1.91.8 2.46.55.53 1.32.8 2.3.8a4.67 4.67 0 0 0 3.04-.98l.74 1.68c-.48.39-1.05.69-1.72.9-.66.21-1.37.32-2.12.32Zm6.07-.2v-7.58a19.95 19.95 0 0 0-.16-2.52h2.42l.2 2h-.24c.32-.7.8-1.25 1.42-1.62a4.07 4.07 0 0 1 2.18-.58c1.19 0 2.08.33 2.68 1 .6.67.9 1.7.9 3.12V105h-2.5v-6.06c0-.81-.16-1.4-.48-1.74-.3-.36-.77-.54-1.4-.54-.77 0-1.39.24-1.84.72a2.68 2.68 0 0 0-.68 1.92v5.7h-2.5Zm16.7.2a5.65 5.65 0 0 1-2.75-.64 4.46 4.46 0 0 1-1.8-1.82 5.95 5.95 0 0 1-.64-2.84c0-1.1.22-2.03.64-2.8a4.5 4.5 0 0 1 1.82-1.78 5.69 5.69 0 0 1 2.72-.62c.67 0 1.31.1 1.94.32.64.2 1.16.5 1.56.88l-.76 1.74a3.5 3.5 0 0 0-1.22-.74 3.53 3.53 0 0 0-1.3-.26c-.9 0-1.6.28-2.1.84-.5.56-.74 1.37-.74 2.44 0 1.07.25 1.89.74 2.46.5.57 1.2.86 2.1.86.42 0 .84-.08 1.28-.24.45-.16.87-.4 1.24-.74l.76 1.72c-.41.39-.94.69-1.58.9-.63.21-1.26.32-1.92.32Zm10.12 0c-1.7 0-3.02-.47-3.99-1.4a5.1 5.1 0 0 1-1.44-3.84c0-1.05.21-1.97.63-2.76a4.58 4.58 0 0 1 4.32-2.5c.97 0 1.78.2 2.43.62.66.41 1.15 1 1.49 1.74.34.75.51 1.62.51 2.62v.66h-7.35v-1.32h5.57l-.34.28c0-.93-.2-1.65-.6-2.14-.38-.5-.95-.74-1.7-.74-.82 0-1.46.3-1.91.88-.45.59-.67 1.4-.67 2.46v.26c0 1.1.27 1.91.8 2.46.55.53 1.32.8 2.3.8a4.7 4.7 0 0 0 3.04-.98l.74 1.68c-.47.39-1.05.69-1.71.9-.67.21-1.38.32-2.13.32ZM440.32 135v-10.58h6.75v1.02h-5.53v3.68h5.2v1.03h-5.2v3.81h5.53V135h-6.75Zm8.68 0v-5.79a24.33 24.33 0 0 0-.12-1.74h1.17l.15 1.65h-.18c.22-.58.57-1.02 1.05-1.32a3.1 3.1 0 0 1 1.7-.47c.89 0 1.56.25 2 .73.47.47.7 1.21.7 2.23V135h-1.22v-4.63c0-.72-.14-1.23-.43-1.55-.28-.33-.72-.5-1.32-.5-.7 0-1.26.22-1.67.65-.4.43-.61 1-.61 1.72V135H449Zm11.3.13c-.6 0-1.16-.07-1.68-.23-.52-.18-.95-.41-1.3-.71l.43-.85c.37.28.77.5 1.2.64.44.14.9.21 1.36.21.6 0 1.05-.1 1.35-.31.31-.22.47-.53.47-.9 0-.3-.1-.52-.3-.7-.2-.18-.5-.31-.95-.41l-1.4-.29a2.79 2.79 0 0 1-1.43-.7 1.8 1.8 0 0 1-.48-1.3c0-.44.11-.82.34-1.15.23-.34.57-.6 1-.8a4.34 4.34 0 0 1 3.06-.05c.48.17.87.4 1.18.71l-.44.84a3.2 3.2 0 0 0-2.22-.87c-.59 0-1.03.12-1.33.36-.3.23-.44.54-.44.92a1 1 0 0 0 .27.72c.2.18.48.31.87.4l1.4.29a3.1 3.1 0 0 1 1.51.7c.34.31.51.73.51 1.26 0 .46-.12.85-.37 1.19-.25.33-.6.59-1.05.77a4.1 4.1 0 0 1-1.56.26Zm7.59 0c-.9 0-1.57-.24-2.03-.73-.45-.49-.67-1.24-.67-2.25v-4.68h1.21v4.65c0 .69.14 1.2.42 1.53.28.32.72.48 1.3.48.67 0 1.2-.22 1.6-.64.4-.44.6-1.01.6-1.73v-4.29h1.21V135h-1.18v-1.7h.2a2.69 2.69 0 0 1-2.66 1.83Zm5.97-.13v-5.72c0-.3 0-.6-.03-.91 0-.31-.03-.61-.06-.9h1.17l.15 1.83-.2.01a2.33 2.33 0 0 1 1.41-1.75c.33-.15.69-.23 1.06-.23l.39.02c.12.01.23.04.33.08l-.02 1.07a2.58 2.58 0 0 0-.84-.12c-.44 0-.82.11-1.15.32a2.12 2.12 0 0 0-.98 1.86V135h-1.23Zm5.48 0v-7.53h1.22V135h-1.22Zm-.15-9.24v-1.37h1.5v1.37h-1.5Zm3.72 9.24v-5.79a24.33 24.33 0 0 0-.12-1.74h1.17l.15 1.65h-.18c.22-.58.57-1.02 1.05-1.32a3.1 3.1 0 0 1 1.7-.47c.89 0 1.56.25 2 .73.47.47.7 1.21.7 2.23V135h-1.22v-4.63c0-.72-.14-1.23-.43-1.55-.28-.33-.72-.5-1.32-.5-.7 0-1.26.22-1.67.65-.4.43-.61 1-.61 1.72V135h-1.22Zm12.1 3.34c-.64 0-1.24-.08-1.8-.24a4.59 4.59 0 0 1-1.48-.73l.36-.91a5.08 5.08 0 0 0 1.85.8c.32.08.66.11 1.02.11.74 0 1.3-.2 1.68-.59.38-.38.57-.94.57-1.66v-2.2h.15a2.46 2.46 0 0 1-1 1.4c-.5.34-1.08.52-1.75.52-.69 0-1.29-.16-1.8-.46-.5-.3-.89-.74-1.17-1.3a4.65 4.65 0 0 1-.4-2.01c0-.76.13-1.42.4-1.98.28-.56.67-.99 1.17-1.29a3.4 3.4 0 0 1 1.8-.47 3 3 0 0 1 1.76.52c.5.34.83.8.99 1.4l-.15-.15.13-1.63h1.19a12.62 12.62 0 0 0-.12 1.74v5.75c0 1.11-.3 1.96-.87 2.53-.57.57-1.41.85-2.52.85Zm-.17-4.5c.73 0 1.3-.24 1.72-.72.42-.49.63-1.17.63-2.05a3 3 0 0 0-.63-2.04c-.42-.48-1-.72-1.72-.72s-1.3.24-1.73.72a2.95 2.95 0 0 0-.64 2.04c0 .88.21 1.56.64 2.06.43.47 1 .72 1.73.72Zm9.81 1.16v-7.53h1.22V135h-1.22Zm-.15-9.24v-1.37h1.5v1.37h-1.5Zm6.23 9.37c-.6 0-1.16-.07-1.68-.23-.52-.18-.95-.41-1.29-.71l.42-.85c.37.28.77.5 1.2.64.44.14.9.21 1.37.21.6 0 1.05-.1 1.35-.31.3-.22.46-.53.46-.9 0-.3-.1-.52-.3-.7-.19-.18-.5-.31-.94-.41l-1.4-.29a2.79 2.79 0 0 1-1.44-.7 1.8 1.8 0 0 1-.48-1.3c0-.44.12-.82.35-1.15.23-.34.56-.6 1-.8a4.34 4.34 0 0 1 3.06-.05c.47.17.86.4 1.17.71l-.43.84c-.3-.28-.65-.5-1.04-.64a3.2 3.2 0 0 0-1.18-.23c-.6 0-1.04.13-1.34.37-.29.22-.43.53-.43.91a1 1 0 0 0 .27.72c.19.18.48.31.87.4l1.4.29a3.1 3.1 0 0 1 1.5.7c.35.31.52.73.52 1.26 0 .46-.13.85-.38 1.19-.25.33-.6.59-1.05.77a4.1 4.1 0 0 1-1.56.26Zm7.44 0c-.6 0-1.16-.07-1.68-.23-.52-.18-.95-.41-1.29-.71l.42-.85c.37.28.77.5 1.2.64.44.14.9.21 1.37.21.6 0 1.05-.1 1.35-.31.3-.22.46-.53.46-.9 0-.3-.1-.52-.3-.7-.19-.18-.5-.31-.94-.41l-1.4-.29a2.79 2.79 0 0 1-1.44-.7 1.8 1.8 0 0 1-.48-1.3c0-.44.12-.82.35-1.15.23-.34.56-.6 1-.8a4.34 4.34 0 0 1 3.06-.05c.47.17.86.4 1.17.71l-.43.84c-.3-.28-.65-.5-1.04-.64a3.2 3.2 0 0 0-1.18-.23c-.6 0-1.04.13-1.34.37-.29.22-.43.53-.43.91a1 1 0 0 0 .27.72c.19.18.48.31.87.4l1.4.29a3.1 3.1 0 0 1 1.5.7c.35.31.52.73.52 1.26 0 .46-.13.85-.38 1.19-.25.33-.6.59-1.05.77a4.1 4.1 0 0 1-1.56.26Zm7.6 0c-.9 0-1.57-.24-2.03-.73-.45-.49-.67-1.24-.67-2.25v-4.68h1.21v4.65c0 .69.14 1.2.42 1.53.28.32.71.48 1.3.48.66 0 1.2-.22 1.6-.64.4-.44.6-1.01.6-1.73v-4.29h1.21V135h-1.18v-1.7h.19a2.69 2.69 0 0 1-2.65 1.83Zm9.34 0a3.77 3.77 0 0 1-2.79-1.01 3.9 3.9 0 0 1-1.02-2.87c0-.79.15-1.47.45-2.06.3-.59.72-1.04 1.26-1.36a3.5 3.5 0 0 1 1.86-.5c.7 0 1.27.15 1.74.44.47.29.83.7 1.08 1.24.25.53.38 1.17.38 1.9v.44h-5.84v-.76h5.04l-.25.2c0-.8-.18-1.43-.54-1.88-.36-.45-.9-.67-1.6-.67-.76 0-1.34.26-1.76.79a3.27 3.27 0 0 0-.63 2.12v.13c0 .94.23 1.66.69 2.15.47.47 1.12.72 1.96.72a3.54 3.54 0 0 0 2.4-.87l.42.85a3.4 3.4 0 0 1-1.26.75 4.9 4.9 0 0 1-1.59.25Zm7.32 0c-.6 0-1.16-.07-1.68-.23-.52-.18-.95-.41-1.29-.71l.42-.85c.37.28.77.5 1.2.64.44.14.9.21 1.37.21.6 0 1.05-.1 1.35-.31.3-.22.46-.53.46-.9 0-.3-.1-.52-.3-.7-.19-.18-.5-.31-.94-.41l-1.4-.29a2.79 2.79 0 0 1-1.44-.7 1.8 1.8 0 0 1-.48-1.3c0-.44.12-.82.35-1.15.23-.34.56-.6 1-.8a4.34 4.34 0 0 1 3.06-.05c.47.17.86.4 1.17.71l-.43.84c-.3-.28-.65-.5-1.04-.64a3.2 3.2 0 0 0-1.18-.23c-.6 0-1.04.13-1.34.37-.29.22-.43.53-.43.91a1 1 0 0 0 .27.72c.19.18.48.31.87.4l1.4.29a3.1 3.1 0 0 1 1.5.7c.35.31.52.73.52 1.26 0 .46-.13.85-.38 1.19-.25.33-.6.59-1.05.77a4.1 4.1 0 0 1-1.56.26Zm11.7 0c-.66 0-1.24-.15-1.74-.46-.5-.32-.9-.77-1.17-1.35a4.9 4.9 0 0 1-.4-2.08c0-.83.13-1.53.4-2.1.28-.58.67-1.03 1.17-1.34.5-.31 1.08-.47 1.74-.47a3 3 0 0 1 1.75.52c.5.34.84.8 1 1.38h-.17v-5.27h1.21V135h-1.2v-1.8h.17c-.16.6-.5 1.08-1 1.43-.5.34-1.08.5-1.76.5Zm.25-.98c.71 0 1.28-.25 1.71-.74.43-.5.65-1.22.65-2.17 0-.97-.22-1.69-.65-2.18-.43-.5-1-.75-1.7-.75-.72 0-1.29.25-1.72.75-.42.49-.63 1.22-.63 2.18 0 .94.21 1.67.63 2.17.43.49 1 .74 1.71.74Zm8.98.98c-.72 0-1.35-.15-1.89-.46a3.22 3.22 0 0 1-1.23-1.35 4.68 4.68 0 0 1-.43-2.08c0-.81.14-1.51.43-2.09.3-.58.7-1.03 1.23-1.34a3.64 3.64 0 0 1 1.9-.48c.72 0 1.35.17 1.88.48.54.31.96.76 1.25 1.34.3.58.45 1.28.45 2.09 0 .8-.15 1.49-.45 2.08-.3.58-.7 1.03-1.25 1.35-.53.31-1.16.47-1.89.47Zm0-.98c.72 0 1.3-.25 1.71-.74.42-.5.63-1.22.63-2.17 0-.97-.21-1.69-.64-2.18a2.1 2.1 0 0 0-1.7-.75 2.1 2.1 0 0 0-1.7.75c-.41.49-.62 1.22-.62 2.18 0 .94.2 1.67.63 2.17.42.49.98.74 1.7.74ZM445.4 153v-5.79c0-.28 0-.56-.04-.86l-.07-.88h1.17l.15 1.65h-.18c.22-.58.57-1.02 1.05-1.32a3.1 3.1 0 0 1 1.7-.47c.88 0 1.55.24 2 .72.46.47.7 1.22.7 2.24V153h-1.22v-4.63c0-.72-.15-1.23-.44-1.55-.28-.33-.72-.5-1.32-.5-.7 0-1.25.22-1.66.65-.41.43-.62 1-.62 1.72V153h-1.21Zm11.89.13c-.73 0-1.36-.15-1.9-.46a3.22 3.22 0 0 1-1.22-1.35 4.68 4.68 0 0 1-.44-2.08c0-.81.14-1.51.44-2.09.28-.58.7-1.03 1.22-1.34a3.64 3.64 0 0 1 1.9-.47c.72 0 1.35.16 1.88.47.54.31.96.76 1.25 1.34.3.58.45 1.28.45 2.09 0 .8-.15 1.49-.45 2.08-.29.58-.7 1.03-1.25 1.35-.53.31-1.16.47-1.88.47Zm0-.98c.71 0 1.28-.25 1.7-.74.43-.5.63-1.22.63-2.17 0-.97-.21-1.69-.64-2.18a2.1 2.1 0 0 0-1.7-.75 2.1 2.1 0 0 0-1.69.75c-.42.49-.63 1.22-.63 2.18 0 .94.21 1.67.63 2.17.42.49.99.74 1.7.74Zm8.07.98c-.74 0-1.3-.2-1.7-.63-.38-.43-.58-1.07-.58-1.93v-4.16h-1.47v-.94h1.47v-2.06l1.22-.34v2.4h2.16v.94h-2.16v4.03c0 .6.1 1.03.3 1.28.2.25.52.38.93.38.19 0 .36-.01.5-.04.16-.05.3-.09.41-.14v1.02c-.14.06-.3.1-.5.13-.2.05-.39.06-.58.06Zm6.49-.13v-11.04h1.21v5.17h-.2c.22-.59.57-1.03 1.06-1.33a3.2 3.2 0 0 1 1.72-.47c.9 0 1.57.25 2.01.74.44.48.66 1.21.66 2.19V153h-1.21v-4.66c0-.7-.14-1.22-.42-1.53-.27-.32-.71-.49-1.32-.49-.7 0-1.26.22-1.68.65-.41.43-.62 1-.62 1.7V153h-1.21Zm11.65.13c-.67 0-1.25-.15-1.75-.46-.5-.32-.9-.77-1.18-1.35a4.9 4.9 0 0 1-.4-2.08c0-.83.13-1.53.4-2.1.29-.58.68-1.03 1.18-1.34.5-.31 1.08-.47 1.75-.47.68 0 1.26.18 1.75.53.5.34.83.8 1 1.4h-.19l.17-1.79h1.17l-.09.88-.03.86V153h-1.21v-1.77h.16a2.4 2.4 0 0 1-.99 1.4c-.5.34-1.08.5-1.74.5Zm.24-.98c.72 0 1.29-.25 1.71-.74.42-.5.63-1.22.63-2.17 0-.97-.21-1.69-.63-2.18-.42-.5-.99-.75-1.71-.75-.71 0-1.28.25-1.71.75-.42.49-.63 1.22-.63 2.18 0 .94.21 1.67.63 2.17.43.49 1 .74 1.71.74Zm5.89 4.09v-9.03a24.33 24.33 0 0 0-.12-1.74h1.17l.16 1.78h-.18c.16-.59.49-1.05.98-1.39a2.94 2.94 0 0 1 1.75-.53c.68 0 1.27.16 1.76.47.5.31.89.75 1.17 1.33.28.59.42 1.28.42 2.1 0 .81-.14 1.51-.42 2.09a3.12 3.12 0 0 1-1.16 1.35 3.3 3.3 0 0 1-1.77.47c-.67 0-1.25-.17-1.74-.51-.49-.34-.81-.81-.97-1.4h.16v5.01h-1.21Zm3.52-4.1c.72 0 1.3-.24 1.71-.73.43-.5.65-1.22.65-2.17 0-.97-.22-1.69-.65-2.18-.42-.5-.99-.75-1.7-.75-.72 0-1.29.25-1.72.75-.42.49-.63 1.22-.63 2.18 0 .94.21 1.67.63 2.17.43.49 1 .74 1.71.74Zm5.47 4.1v-9.03a24.33 24.33 0 0 0-.12-1.74h1.17l.17 1.78h-.18c.16-.59.48-1.05.97-1.39a2.94 2.94 0 0 1 1.76-.53 3.12 3.12 0 0 1 2.93 1.8c.27.58.41 1.28.41 2.1 0 .81-.14 1.51-.42 2.09a3.12 3.12 0 0 1-1.15 1.35 3.3 3.3 0 0 1-1.77.47c-.67 0-1.25-.17-1.74-.51-.5-.34-.82-.81-.98-1.4h.17v5.01h-1.22Zm3.53-4.1c.72 0 1.29-.24 1.7-.73.44-.5.65-1.22.65-2.17 0-.97-.21-1.69-.64-2.18-.42-.5-1-.75-1.71-.75s-1.28.25-1.71.75c-.42.49-.63 1.22-.63 2.18 0 .94.2 1.67.63 2.17.43.49 1 .74 1.7.74Zm8.81 1a3.77 3.77 0 0 1-2.79-1.02 3.9 3.9 0 0 1-1.02-2.87c0-.79.15-1.47.45-2.06.3-.59.72-1.04 1.26-1.36a3.5 3.5 0 0 1 1.86-.5c.7 0 1.27.15 1.74.44.47.29.83.7 1.08 1.24.25.53.38 1.17.38 1.9v.44h-5.84v-.76h5.04l-.25.2c0-.8-.18-1.43-.54-1.88-.36-.45-.9-.67-1.6-.67-.76 0-1.34.26-1.76.79a3.27 3.27 0 0 0-.63 2.12v.13c0 .94.23 1.66.69 2.15.47.47 1.12.72 1.96.72a3.54 3.54 0 0 0 2.4-.87l.42.85a3.4 3.4 0 0 1-1.26.75 4.9 4.9 0 0 1-1.59.25Zm4.82-.14v-5.79a24.33 24.33 0 0 0-.12-1.74h1.17l.15 1.65h-.18c.22-.58.57-1.02 1.05-1.32a3.1 3.1 0 0 1 1.7-.47c.88 0 1.55.24 2 .72.46.47.7 1.22.7 2.24V153h-1.22v-4.63c0-.72-.15-1.23-.44-1.55-.28-.33-.72-.5-1.32-.5-.7 0-1.25.22-1.66.65-.41.43-.62 1-.62 1.72V153h-1.21Zm15.56.13c-.67 0-1.25-.15-1.75-.46-.5-.32-.9-.77-1.17-1.35a4.9 4.9 0 0 1-.4-2.08c0-.83.13-1.53.4-2.1.28-.58.67-1.03 1.17-1.34.5-.31 1.08-.47 1.75-.47.68 0 1.27.18 1.76.53.5.34.83.8.99 1.4h-.18l.16-1.79h1.17l-.09.88-.03.86V153h-1.21v-1.77h.16a2.4 2.4 0 0 1-.99 1.4c-.5.34-1.08.5-1.74.5Zm.24-.98c.72 0 1.3-.25 1.71-.74.42-.5.63-1.22.63-2.17 0-.97-.2-1.69-.63-2.18-.42-.5-.99-.75-1.7-.75-.72 0-1.29.25-1.72.75-.42.49-.63 1.22-.63 2.18 0 .94.21 1.67.63 2.17.43.49 1 .74 1.71.74Zm9.2 4.2c-.64 0-1.24-.09-1.8-.25a4.59 4.59 0 0 1-1.48-.73l.36-.91a5.08 5.08 0 0 0 1.85.8c.32.08.66.11 1.02.11.74 0 1.3-.2 1.68-.59.38-.38.57-.94.57-1.66v-2.2h.15a2.46 2.46 0 0 1-1 1.4c-.5.34-1.08.52-1.75.52-.69 0-1.29-.16-1.8-.46-.5-.3-.89-.74-1.17-1.3a4.65 4.65 0 0 1-.4-2.01c0-.76.13-1.42.4-1.98.28-.56.67-.99 1.17-1.29a3.4 3.4 0 0 1 1.8-.47 3 3 0 0 1 1.76.51c.5.34.83.81.99 1.41l-.15-.15.13-1.63h1.19a12.62 12.62 0 0 0-.12 1.74v5.75c0 1.11-.3 1.96-.87 2.53-.57.57-1.41.85-2.52.85Zm-.17-4.5c.73 0 1.3-.25 1.72-.72.42-.5.63-1.18.63-2.06a3 3 0 0 0-.63-2.04c-.42-.48-1-.72-1.72-.72s-1.3.24-1.73.72a2.95 2.95 0 0 0-.64 2.04c0 .88.21 1.56.64 2.06.43.47 1 .72 1.73.72Zm8.76 1.28c-.67 0-1.25-.15-1.75-.46-.5-.32-.9-.77-1.17-1.35a4.9 4.9 0 0 1-.4-2.08c0-.83.13-1.53.4-2.1.28-.58.67-1.03 1.17-1.34.5-.31 1.08-.47 1.75-.47.68 0 1.27.18 1.76.53.5.34.83.8.99 1.4h-.18l.16-1.79h1.17l-.09.88-.03.86V153h-1.21v-1.77h.16a2.4 2.4 0 0 1-.99 1.4c-.5.34-1.08.5-1.74.5Zm.24-.98c.72 0 1.3-.25 1.71-.74.42-.5.63-1.22.63-2.17 0-.97-.2-1.69-.63-2.18-.42-.5-.99-.75-1.7-.75-.72 0-1.29.25-1.72.75-.42.49-.63 1.22-.63 2.18 0 .94.21 1.67.63 2.17.43.49 1 .74 1.71.74Zm5.9.85v-7.53h1.2V153h-1.2Zm-.16-9.24v-1.36h1.5v1.36h-1.5Zm3.73 9.24v-5.79a24.33 24.33 0 0 0-.12-1.74h1.17l.15 1.65h-.18c.22-.58.57-1.02 1.05-1.32a3.1 3.1 0 0 1 1.7-.47c.88 0 1.55.24 2 .72.46.47.7 1.22.7 2.24V153h-1.22v-4.63c0-.72-.15-1.23-.44-1.55-.28-.33-.72-.5-1.32-.5-.7 0-1.25.22-1.66.65-.41.43-.62 1-.62 1.72V153h-1.21Z"/><path stroke="#969696" stroke-linecap="round" stroke-linejoin="round" stroke-width="2" d="M24 317.12c3.25 2.06 6.56 4.27 10.02 6.58h0c24.21 16.16 54.33 36.25 111.23 36.25 56.89 0 87-20.09 111.2-36.24l.02-.01h0c20.48-13.67 35.28-23.54 67.99-23.54 32.71 0 47.52 9.86 68 23.54 24.19 16.15 54.31 36.25 111.21 36.25 56.89 0 87-20.09 111.2-36.24l.02-.01h0c3.12-2.08 6.1-4.07 9.03-5.95m-578.97-24.6 15.53 10.24m12.36 7.79 16.57 8.46m13.75 4.92 18.18 3.9m14.55 1.37 18.37.02m31.68-4.9-17.68 3.63m47.12-16.1-16.18 7.93m43.16-25.22-15.03 9.95m43.15-25.23-16.18 7.93m47.12-16.1-17.68 3.63m31.69-4.9h18.04m14.01 1.27 17.67 3.63m13.27 4.54 16.17 7.93m11.95 7.35 15.03 9.95m11.95 7.34 16.17 7.93m13.27 4.54 17.67 3.63m32.05 1.27h-18.04m49.73-4.9-17.68 3.63m47.12-16.1-16.18 7.93m43.15-25.22-15.02 9.94M24 248.86c22.64 7.34 38.97 18.22 53.23 27.74l.02.01c15.48 10.33 27.71 18.5 46.9 21.87m39.39.45c20.8-3.05 33.47-11.49 49.69-22.31 21.44-14.3 47.52-31.7 92.72-35.5m36.16-.07c45.73 3.64 72 21.17 93.58 35.57 15.95 10.65 28.46 18.99 48.66 22.15m39.38-.11c19.79-3.25 32.18-11.52 47.94-22.04h.01c14.08-9.4 30.15-20.12 52.32-27.46m-.08 33.2-11.19 5.48"/><path stroke="#4E88E7" stroke-linecap="round" stroke-linejoin="round" stroke-width="2" d="M117 279.2c0-15.02 12.07-27.2 26.96-27.2h.08c14.89 0 26.96 12.18 26.96 27.2 0 19.91-27 38.8-27 38.8s-27-18.89-27-38.8Z" clip-rule="evenodd"/><path stroke="#3CC583" stroke-linecap="round" stroke-linejoin="round" stroke-width="2" d="M297 220.2c0-15.02 12.07-27.2 26.96-27.2h.08c14.89 0 26.96 12.18 26.96 27.2 0 19.91-27 38.8-27 38.8s-27-18.89-27-38.8Z" clip-rule="evenodd"/><path stroke="#92BD39" stroke-linecap="round" stroke-linejoin="round" stroke-width="2" d="M477 279.2c0-15.02 12.07-27.2 26.96-27.2h.08c14.89 0 26.96 12.18 26.96 27.2 0 19.91-27 38.8-27 38.8s-27-18.89-27-38.8Z" clip-rule="evenodd"/><path stroke="#3CC583" stroke-linecap="round" stroke-linejoin="round" stroke-width="2" d="m312.89 221.46 1.35-1.2c.45-.45.75-1.2.75-1.8 0-.6-.3-1.35-.75-1.8l-1.35-1.2a2.52 2.52 0 0 1-.6-2.85c.45-.9 1.35-1.65 2.4-1.5l1.8.15c.75 0 1.35-.3 1.95-.75.45-.45.75-1.2.75-1.95l-.15-1.8c0-1.05.6-1.95 1.5-2.4.9-.45 2.1-.15 2.85.6l1.2 1.35c.45.45 1.2.75 1.8.75.75 0 1.35-.3 1.8-.75l1.2-1.35a2.52 2.52 0 0 1 2.85-.6c.9.45 1.65 1.35 1.5 2.4l-.15 1.8c0 .75.3 1.35.75 1.95.45.45 1.2.75 1.95.75l1.8-.15c1.05 0 1.95.6 2.4 1.5.45.9.15 2.1-.6 2.85l-1.35 1.2c-.45.45-.75 1.2-.75 1.8 0 .6.3 1.35.75 1.8l1.35 1.2c.75.75 1.05 1.8.6 2.85-.45.9-1.35 1.65-2.4 1.5l-1.8-.15c-.75 0-1.35.3-1.95.75-.45.45-.75 1.2-.75 1.95l.15 1.8c0 1.05-.6 1.95-1.5 2.4-.9.45-2.1.15-2.85-.6l-1.2-1.35a2.77 2.77 0 0 0-1.8-.75c-.75 0-1.35.3-1.8.75l-1.2 1.35m9.75-11.4c-.3.9-.75 1.8-1.5 2.55a6.99 6.99 0 0 1-7.35 1.5l-12.45 12.45a2.63 2.63 0 0 1-3.75 0 2.63 2.63 0 0 1 0-3.75l12.45-12.45a6.67 6.67 0 0 1 2.7-8.25 6.42 6.42 0 0 1 6.15-.45c1.95.9 3.15 2.25 3.6 3.9h-5.25a2.3 2.3 0 0 0-2.25 2.25 2.3 2.3 0 0 0 2.25 2.25h5.4Z"/><path stroke="#4E88E7" stroke-linecap="round" stroke-linejoin="round" stroke-width="2" d="M144 292.38h-15.75a1.5 1.5 0 0 1-1.5-1.5v-24c0-.83.67-1.5 1.5-1.5h28.5c.83 0 1.5.67 1.5 1.5v10.35m-28.5.9 1.5 1.5 4.5-4.5m2.25 3.75h5.25m-3-3h4.5m-18-4.5h31.5m3 22.5-4.87-4.88m-11.63-4.83a6.8 6.8 0 1 0 13.59 0 6.8 6.8 0 0 0-13.59 0Z"/><path stroke="#92BD39" stroke-linecap="round" stroke-linejoin="round" stroke-width="2" d="M511.5 277.75a7.5 7.5 0 1 1-7.5-7.5m-3 6.75 2.43 1.82c.32.24.77.19 1.03-.12l7.04-8.45m-23.25-2.59v11.46a18.47 18.47 0 0 0 12.33 17.2l1.68.62c1.12.41 2.36.41 3.48 0l1.68-.62a18.47 18.47 0 0 0 12.33-17.2v-11.46a2.3 2.3 0 0 0-1.4-2.1 36.35 36.35 0 0 0-14.35-2.81c-4.92-.05-9.8.9-14.35 2.8a2.3 2.3 0 0 0-1.4 2.11Z"/><path fill="#E3FFF2" stroke="#3CC583" stroke-width="2" d="M240 37a12 12 0 0 1 12-12h144a12 12 0 0 1 12 12v120a12 12 0 0 1-12 12h-59.61a1 1 0 0 0-.68.26l-9.68 8.88a3 3 0 0 1-4.06 0l-9.68-8.88a1 1 0 0 0-.68-.26H252a12 12 0 0 1-12-12V37Z"/><path fill="#3CC583" d="m286.67 59 6.38-14.1h2.16l6.46 14.1h-2.62l-1.72-3.96 1.04.7h-8.46l1.08-.7-1.72 3.96h-2.6Zm7.44-11.34-2.82 6.68-.52-.62h6.72l-.42.62-2.88-6.68h-.08Zm12.74 11.54c-.88 0-1.66-.2-2.34-.62a4.28 4.28 0 0 1-1.56-1.82 6.53 6.53 0 0 1-.56-2.82c0-1.1.19-2.03.56-2.8a4.15 4.15 0 0 1 3.9-2.44 4 4 0 0 1 2.22.62c.66.4 1.09.95 1.3 1.64h-.26v-6.68h2.5V59h-2.46v-2.14h.24c-.21.72-.64 1.3-1.3 1.72-.64.41-1.38.62-2.24.62Zm.7-1.92a2.4 2.4 0 0 0 1.9-.82c.48-.56.72-1.4.72-2.52s-.24-1.95-.72-2.5a2.4 2.4 0 0 0-1.9-.82c-.78 0-1.42.27-1.92.82-.48.55-.72 1.38-.72 2.5s.24 1.96.72 2.52c.5.55 1.14.82 1.92.82Zm11.7 1.92c-.88 0-1.65-.2-2.33-.62a4.27 4.27 0 0 1-1.56-1.82 6.52 6.52 0 0 1-.56-2.82c0-1.1.18-2.03.56-2.8a4.14 4.14 0 0 1 3.9-2.44 4 4 0 0 1 2.22.62c.65.4 1.08.95 1.3 1.64h-.26v-6.68h2.5V59h-2.46v-2.14h.24c-.22.72-.65 1.3-1.3 1.72-.64.41-1.4.62-2.25.62Zm.7-1.92a2.4 2.4 0 0 0 1.9-.82c.48-.56.72-1.4.72-2.52s-.24-1.95-.71-2.5a2.4 2.4 0 0 0-1.9-.82c-.8 0-1.43.27-1.92.82-.49.55-.73 1.38-.73 2.5s.25 1.96.73 2.52c.49.55 1.13.82 1.91.82Zm7.77 1.72v-7.52a21.22 21.22 0 0 0-.14-2.58H330l.28 2.76h-.4c.13-.67.35-1.22.66-1.66.32-.44.7-.77 1.16-.98a3.43 3.43 0 0 1 2.06-.28c.14.01.29.05.44.1l-.02 2.2a2.75 2.75 0 0 0-1.32-.24c-.58 0-1.06.12-1.46.36a2.3 2.3 0 0 0-.88 1 3.6 3.6 0 0 0-.28 1.46V59h-2.52Zm12.6.2c-1.7 0-3.03-.47-3.99-1.4a5.1 5.1 0 0 1-1.44-3.84c0-1.05.2-1.97.62-2.76a4.59 4.59 0 0 1 4.32-2.5c.98 0 1.79.2 2.44.62.66.41 1.15 1 1.48 1.74.35.75.52 1.62.52 2.62v.66h-7.36v-1.32h5.58l-.34.28c0-.93-.2-1.65-.6-2.14-.38-.5-.95-.74-1.7-.74-.82 0-1.46.3-1.92.88-.44.59-.66 1.4-.66 2.46v.26c0 1.1.27 1.91.8 2.46.55.53 1.32.8 2.3.8a4.68 4.68 0 0 0 3.04-.98l.74 1.68c-.48.39-1.05.69-1.72.9-.66.21-1.37.32-2.12.32Zm9.67 0a9.1 9.1 0 0 1-2.4-.3 5.65 5.65 0 0 1-1.82-.88l.7-1.68a6.1 6.1 0 0 0 3.54 1.08c.67 0 1.16-.11 1.48-.34.33-.23.5-.53.5-.92 0-.3-.1-.55-.32-.72-.2-.19-.53-.33-.98-.42l-2-.38c-.85-.19-1.5-.5-1.96-.96a2.45 2.45 0 0 1-.66-1.78c0-.63.17-1.18.5-1.66.35-.48.83-.85 1.46-1.12a5.55 5.55 0 0 1 2.24-.42c.75 0 1.45.1 2.1.3.67.2 1.23.5 1.68.9l-.72 1.62c-.41-.33-.89-.6-1.42-.78a4.7 4.7 0 0 0-1.56-.28c-.7 0-1.2.13-1.52.38-.32.24-.48.55-.48.94 0 .3.1.54.28.74.2.19.5.33.92.42l2 .38c.9.17 1.57.48 2.02.92.47.43.7 1.01.7 1.76 0 .67-.18 1.24-.54 1.72-.36.48-.86.85-1.5 1.1-.64.25-1.39.38-2.24.38Zm10.02 0a9.1 9.1 0 0 1-2.4-.3 5.64 5.64 0 0 1-1.82-.88l.7-1.68a6.35 6.35 0 0 0 3.54 1.08c.66 0 1.16-.11 1.48-.34.33-.23.5-.53.5-.92 0-.3-.1-.55-.32-.72-.2-.19-.53-.33-.98-.42l-2-.38c-.85-.19-1.5-.5-1.96-.96a2.45 2.45 0 0 1-.66-1.78c0-.63.17-1.18.5-1.66.35-.48.83-.85 1.46-1.12a5.55 5.55 0 0 1 2.24-.42c.75 0 1.44.1 2.1.3.67.2 1.23.5 1.68.9l-.72 1.62a4.74 4.74 0 0 0-2.98-1.06c-.7 0-1.2.13-1.52.38-.32.24-.48.55-.48.94 0 .3.1.54.28.74.2.19.5.33.92.42l2 .38c.9.17 1.56.48 2.02.92.47.43.7 1.01.7 1.76 0 .67-.18 1.24-.54 1.72-.36.48-.86.85-1.5 1.1-.64.25-1.39.38-2.24.38ZM282.39 83V68.9h6.26c1.55 0 2.73.37 3.54 1.12a3.97 3.97 0 0 1 1.22 3.08c0 1.3-.4 2.32-1.22 3.08-.81.76-2 1.14-3.54 1.14h-3.68V83h-2.58Zm2.58-7.72h3.38c.85 0 1.5-.19 1.92-.56.43-.39.64-.93.64-1.62 0-.7-.21-1.23-.64-1.6-.43-.39-1.07-.58-1.92-.58h-3.38v4.36ZM295.29 83v-7.52a21.22 21.22 0 0 0-.14-2.58h2.43l.28 2.76h-.4c.13-.67.35-1.22.66-1.66.31-.44.7-.77 1.15-.98a3.43 3.43 0 0 1 2.06-.28c.15.01.3.05.44.1l-.01 2.2a2.75 2.75 0 0 0-1.32-.24c-.58 0-1.06.12-1.46.36a2.3 2.3 0 0 0-.88 1 3.6 3.6 0 0 0-.29 1.46V83h-2.51Zm12.28.2a5.43 5.43 0 0 1-2.7-.64 4.5 4.5 0 0 1-1.78-1.82 5.95 5.95 0 0 1-.62-2.8c0-1.08.2-2 .62-2.78a4.5 4.5 0 0 1 1.78-1.82 5.43 5.43 0 0 1 2.7-.64c1.04 0 1.94.21 2.7.64a4.33 4.33 0 0 1 1.78 1.82c.43.77.64 1.7.64 2.78 0 1.08-.21 2.01-.64 2.8-.41.79-1 1.4-1.78 1.82-.76.43-1.66.64-2.7.64Zm0-1.92c.79 0 1.41-.27 1.88-.82.47-.56.7-1.4.7-2.52s-.23-1.95-.7-2.5a2.34 2.34 0 0 0-1.88-.82c-.79 0-1.41.27-1.88.82-.47.55-.7 1.38-.7 2.5s.23 1.96.7 2.52c.47.55 1.1.82 1.88.82Zm13.06 1.92c-.86 0-1.6-.2-2.24-.62-.64-.43-1.07-1-1.28-1.72h.22V83h-2.48V68.28h2.5v6.68h-.24c.22-.7.66-1.24 1.3-1.64a4 4 0 0 1 2.22-.62c.89 0 1.67.21 2.34.64a4.27 4.27 0 0 1 1.56 1.82c.37.77.56 1.7.56 2.8 0 1.1-.19 2.03-.56 2.82-.38.77-.9 1.37-1.58 1.8-.67.41-1.44.62-2.32.62Zm-.7-1.92a2.4 2.4 0 0 0 1.9-.82c.49-.55.74-1.38.74-2.5s-.25-1.95-.74-2.5a2.38 2.38 0 0 0-1.9-.84 2.4 2.4 0 0 0-1.9.82c-.48.55-.72 1.38-.72 2.5s.24 1.96.72 2.52a2.4 2.4 0 0 0 1.9.82Zm7.32 1.72V68.28h2.5V83h-2.5Zm10.1.2c-1.7 0-3.03-.47-3.99-1.4a5.1 5.1 0 0 1-1.44-3.84c0-1.05.21-1.97.62-2.76a4.58 4.58 0 0 1 4.32-2.5c.98 0 1.79.2 2.44.62.66.41 1.15 1 1.48 1.74.35.75.52 1.62.52 2.62v.66h-7.36v-1.32h5.58l-.34.28c0-.93-.2-1.65-.6-2.14-.38-.5-.95-.74-1.7-.74-.82 0-1.46.3-1.92.88-.44.59-.66 1.4-.66 2.46v.26c0 1.1.27 1.91.8 2.46.55.53 1.32.8 2.3.8a4.7 4.7 0 0 0 3.04-.98l.74 1.68c-.48.39-1.05.69-1.72.9-.66.21-1.37.32-2.12.32Zm6.07-.2v-7.58a20.73 20.73 0 0 0-.16-2.52h2.42l.2 2h-.24c.28-.7.7-1.23 1.28-1.62a3.7 3.7 0 0 1 2.08-.58c.8 0 1.46.2 1.98.58a3 3 0 0 1 1.12 1.76h-.32c.28-.72.74-1.29 1.38-1.7a3.87 3.87 0 0 1 2.2-.64c1.13 0 1.98.33 2.54 1 .56.67.84 1.7.84 3.12V83h-2.5v-6.08c0-.8-.13-1.37-.4-1.72-.27-.36-.7-.54-1.28-.54a2 2 0 0 0-1.64.74c-.4.48-.6 1.13-.6 1.96V83h-2.5v-6.08c0-.8-.13-1.37-.4-1.72-.27-.36-.7-.54-1.28-.54a2 2 0 0 0-1.64.74 3.04 3.04 0 0 0-.58 1.96V83h-2.5Zm21.59.2a9.1 9.1 0 0 1-2.4-.3 5.64 5.64 0 0 1-1.82-.88l.7-1.68a6.35 6.35 0 0 0 3.54 1.08c.66 0 1.16-.11 1.48-.34.33-.23.5-.53.5-.92 0-.3-.1-.55-.32-.72-.2-.19-.53-.33-.98-.42l-2-.38c-.85-.19-1.5-.5-1.96-.96a2.45 2.45 0 0 1-.66-1.78c0-.63.17-1.18.5-1.66.35-.48.83-.85 1.46-1.12a5.55 5.55 0 0 1 2.24-.42c.75 0 1.44.1 2.1.3.67.2 1.23.5 1.68.9l-.72 1.62a4.74 4.74 0 0 0-2.98-1.06c-.7 0-1.2.13-1.52.38-.32.24-.48.55-.48.94 0 .3.1.54.28.74.2.19.5.33.92.42l2 .38c.9.17 1.56.48 2.02.92.47.43.7 1.01.7 1.76 0 .67-.18 1.24-.54 1.72-.36.48-.86.85-1.5 1.1-.64.25-1.39.38-2.24.38ZM277.4 116v-10.58h1.25V116h-1.25Zm3.75 0v-5.79a24.33 24.33 0 0 0-.12-1.74h1.17l.15 1.65h-.18c.2-.57.51-1.01.94-1.32.44-.31.97-.47 1.6-.47.62 0 1.13.16 1.52.45.4.3.67.77.81 1.4h-.22c.19-.57.52-1.02 1-1.35a2.9 2.9 0 0 1 1.68-.5c.83 0 1.46.25 1.88.73.42.47.63 1.21.63 2.23V116h-1.22v-4.64c0-.7-.12-1.22-.37-1.54-.25-.33-.65-.5-1.2-.5-.63 0-1.13.23-1.5.67a2.62 2.62 0 0 0-.54 1.73V116h-1.22v-4.64c0-.7-.12-1.22-.37-1.54-.25-.33-.65-.5-1.2-.5-.63 0-1.13.23-1.49.67a2.62 2.62 0 0 0-.54 1.73V116h-1.21Zm13.17 3.24v-9.03a24.33 24.33 0 0 0-.12-1.74h1.17l.16 1.78h-.18c.16-.58.49-1.05.98-1.39a2.94 2.94 0 0 1 1.75-.53c.68 0 1.27.16 1.76.47.5.31.89.76 1.17 1.34.28.58.42 1.28.42 2.1 0 .8-.14 1.5-.42 2.08a3.12 3.12 0 0 1-1.16 1.35 3.3 3.3 0 0 1-1.77.47c-.67 0-1.25-.17-1.74-.52-.49-.34-.81-.8-.97-1.39h.16v5.01h-1.21Zm3.52-4.1c.72 0 1.3-.24 1.71-.73.43-.5.65-1.22.65-2.17 0-.96-.22-1.69-.65-2.18-.42-.5-.99-.75-1.7-.75-.72 0-1.29.25-1.72.75-.42.49-.63 1.22-.63 2.17s.21 1.68.63 2.18c.43.49 1 .73 1.71.73Zm5.47.86v-11.04h1.21V116h-1.21Zm6.92.14a3.77 3.77 0 0 1-2.8-1.03 3.9 3.9 0 0 1-1.01-2.86c0-.79.15-1.47.45-2.06.3-.58.72-1.04 1.26-1.36a3.5 3.5 0 0 1 1.86-.5c.69 0 1.27.15 1.74.44.47.29.83.7 1.08 1.25.25.53.37 1.16.37 1.89v.45h-5.83v-.77h5.04l-.26.2c0-.8-.18-1.43-.54-1.88-.36-.45-.9-.67-1.6-.67-.75 0-1.34.26-1.76.79a3.27 3.27 0 0 0-.63 2.11v.14c0 .94.23 1.66.7 2.14.46.48 1.12.72 1.96.72.45 0 .87-.06 1.26-.19.4-.14.78-.37 1.14-.67l.42.85a3.4 3.4 0 0 1-1.26.75 4.9 4.9 0 0 1-1.6.26Zm4.81-.14v-5.79a24.33 24.33 0 0 0-.12-1.74h1.17l.15 1.65h-.18c.2-.57.52-1.01.95-1.32.44-.31.97-.47 1.59-.47.63 0 1.14.16 1.53.45.4.3.67.77.8 1.4h-.22c.2-.57.53-1.02 1-1.35a2.9 2.9 0 0 1 1.69-.5c.83 0 1.45.25 1.87.73.42.47.63 1.21.63 2.23V116h-1.21v-4.64c0-.7-.13-1.22-.38-1.54-.25-.33-.65-.5-1.2-.5-.63 0-1.13.23-1.5.67a2.62 2.62 0 0 0-.54 1.73V116h-1.21v-4.64c0-.7-.13-1.22-.38-1.54-.25-.33-.65-.5-1.2-.5-.63 0-1.12.23-1.48.67a2.62 2.62 0 0 0-.54 1.73V116h-1.22Zm16.52.14a3.77 3.77 0 0 1-2.8-1.03 3.9 3.9 0 0 1-1.01-2.86c0-.79.15-1.47.45-2.06.3-.58.72-1.04 1.26-1.36a3.5 3.5 0 0 1 1.86-.5c.69 0 1.27.15 1.74.44.47.29.83.7 1.08 1.25.25.53.37 1.16.37 1.89v.45h-5.83v-.77h5.04l-.26.2c0-.8-.18-1.43-.54-1.88-.36-.45-.9-.67-1.6-.67-.75 0-1.34.26-1.76.79a3.27 3.27 0 0 0-.63 2.11v.14c0 .94.23 1.66.7 2.14.46.48 1.12.72 1.96.72.45 0 .87-.06 1.26-.19.4-.14.78-.37 1.14-.67l.42.85a3.4 3.4 0 0 1-1.26.75 4.9 4.9 0 0 1-1.6.26Zm4.81-.14v-5.79a24.33 24.33 0 0 0-.12-1.74h1.17l.15 1.65h-.18c.22-.58.57-1.02 1.05-1.32a3.1 3.1 0 0 1 1.7-.47c.89 0 1.56.25 2 .73.47.47.7 1.21.7 2.23V116h-1.22v-4.64c0-.7-.14-1.22-.43-1.54-.28-.33-.72-.5-1.32-.5-.7 0-1.26.22-1.67.65-.4.43-.61 1-.61 1.72V116h-1.22Zm11.46.14c-.74 0-1.3-.22-1.7-.64-.38-.42-.58-1.07-.58-1.93v-4.15h-1.47v-.95h1.47v-2.05l1.22-.35v2.4h2.16v.95h-2.16v4.02c0 .6.1 1.03.3 1.28.2.25.52.38.93.38.19 0 .36-.02.5-.04.16-.05.3-.09.41-.14v1.02c-.14.06-.3.1-.5.14-.2.03-.39.06-.58.06Zm2.57-.14v-7.53h1.22V116h-1.22Zm-.14-9.24v-1.37h1.5v1.37h-1.5Zm3.72 9.24v-5.79a24.33 24.33 0 0 0-.12-1.74h1.17l.15 1.65H355c.22-.58.57-1.02 1.05-1.32a3.1 3.1 0 0 1 1.7-.47c.88 0 1.55.25 2 .73.46.47.7 1.21.7 2.23V116h-1.22v-4.64c0-.7-.15-1.22-.44-1.54-.28-.33-.72-.5-1.32-.5-.7 0-1.25.22-1.66.65-.41.43-.62 1-.62 1.72V116h-1.21Zm12.1 3.34c-.65 0-1.25-.08-1.8-.23a4.59 4.59 0 0 1-1.48-.74l.36-.92a5.08 5.08 0 0 0 1.84.81c.32.07.66.11 1.02.11.74 0 1.3-.2 1.68-.59.38-.39.57-.94.57-1.66v-2.2h.15a2.46 2.46 0 0 1-.99 1.4c-.5.35-1.08.52-1.75.52-.7 0-1.3-.16-1.8-.45-.5-.31-.9-.75-1.17-1.31a4.65 4.65 0 0 1-.4-2.01c0-.76.13-1.42.4-1.98.28-.56.67-.99 1.17-1.29a3.4 3.4 0 0 1 1.8-.47 3 3 0 0 1 1.75.52c.5.34.83.8 1 1.4l-.16-.14.14-1.64h1.18a12.62 12.62 0 0 0-.12 1.74v5.75c0 1.12-.29 1.96-.87 2.53-.57.57-1.4.86-2.52.86Zm-.18-4.5c.73 0 1.3-.23 1.73-.72.42-.48.63-1.17.63-2.05a3 3 0 0 0-.63-2.04c-.42-.48-1-.72-1.73-.72-.72 0-1.3.24-1.72.72a2.95 2.95 0 0 0-.65 2.04c0 .88.22 1.57.65 2.06.43.48 1 .72 1.72.72ZM260.69 134.13c-.6 0-1.16-.07-1.68-.23-.52-.18-.95-.41-1.29-.71l.42-.85c.37.28.77.5 1.2.64.44.14.9.21 1.37.21.6 0 1.05-.1 1.35-.31.3-.22.46-.53.46-.9 0-.3-.1-.52-.3-.7-.19-.18-.5-.31-.95-.41l-1.39-.29a2.79 2.79 0 0 1-1.44-.7 1.8 1.8 0 0 1-.48-1.3c0-.44.12-.82.35-1.15.23-.34.56-.6 1-.8a4.34 4.34 0 0 1 3.06-.05c.47.17.86.4 1.17.72l-.44.83a3.2 3.2 0 0 0-2.22-.87c-.58 0-1.03.13-1.33.37-.29.23-.44.53-.44.91a1 1 0 0 0 .27.72c.2.18.49.31.88.4l1.39.29a3.1 3.1 0 0 1 1.52.7c.33.31.5.73.5 1.26 0 .46-.12.85-.37 1.19-.25.33-.6.59-1.05.77a4.1 4.1 0 0 1-1.56.26Zm8.03 0c-.72 0-1.35-.15-1.9-.46a3.22 3.22 0 0 1-1.22-1.35 4.68 4.68 0 0 1-.44-2.08c0-.81.15-1.51.44-2.09.29-.58.7-1.03 1.23-1.34a3.64 3.64 0 0 1 1.89-.48c.73 0 1.36.17 1.89.48.54.31.95.76 1.24 1.34.3.58.45 1.28.45 2.09 0 .8-.15 1.49-.45 2.08-.29.58-.7 1.03-1.24 1.35-.53.31-1.16.47-1.9.47Zm0-.98c.72 0 1.29-.25 1.7-.74.43-.5.64-1.22.64-2.17 0-.97-.22-1.69-.65-2.18a2.1 2.1 0 0 0-1.7-.75 2.1 2.1 0 0 0-1.69.75c-.42.49-.63 1.22-.63 2.18 0 .94.21 1.67.63 2.17.42.49.99.74 1.7.74Zm5.48.85v-11.04h1.21V134h-1.21Zm6.23.13c-.9 0-1.57-.24-2.03-.73-.45-.49-.67-1.24-.67-2.25v-4.68h1.21v4.65c0 .69.14 1.2.42 1.53.28.32.71.48 1.3.48.66 0 1.2-.22 1.6-.64.4-.44.6-1.01.6-1.73v-4.29h1.21V134h-1.19v-1.7h.2a2.69 2.69 0 0 1-2.65 1.83Zm8.67 0c-.74 0-1.3-.2-1.7-.63-.39-.43-.58-1.07-.58-1.93v-4.15h-1.47v-.95h1.47v-2.05l1.21-.35v2.4h2.16v.95h-2.16v4.02c0 .6.1 1.03.3 1.28.21.25.52.38.93.38.2 0 .36-.01.51-.04.15-.05.29-.09.4-.14v1.02c-.13.06-.3.1-.5.13-.2.05-.38.06-.57.06Zm2.57-.13v-7.53h1.22V134h-1.22Zm-.15-9.24v-1.37h1.5v1.37h-1.5Zm6.82 9.37c-.72 0-1.35-.15-1.9-.46a3.22 3.22 0 0 1-1.22-1.35 4.68 4.68 0 0 1-.44-2.08c0-.81.15-1.51.44-2.09.29-.58.7-1.03 1.23-1.34a3.64 3.64 0 0 1 1.89-.48c.73 0 1.36.17 1.89.48.54.31.95.76 1.24 1.34.3.58.45 1.28.45 2.09 0 .8-.15 1.49-.45 2.08-.29.58-.7 1.03-1.24 1.35-.53.31-1.16.47-1.9.47Zm0-.98c.72 0 1.29-.25 1.7-.74.43-.5.64-1.22.64-2.17 0-.97-.22-1.69-.65-2.18a2.1 2.1 0 0 0-1.7-.75 2.1 2.1 0 0 0-1.69.75c-.42.49-.63 1.22-.63 2.18 0 .94.21 1.67.63 2.17.42.49.99.74 1.7.74Zm5.48.85v-5.79a24.33 24.33 0 0 0-.12-1.74h1.17l.14 1.65h-.18c.23-.58.57-1.02 1.06-1.32a3.1 3.1 0 0 1 1.69-.47c.89 0 1.56.25 2.01.73.46.47.69 1.21.69 2.23V134h-1.21v-4.63c0-.72-.15-1.23-.44-1.55-.28-.33-.72-.5-1.32-.5-.7 0-1.25.22-1.67.65-.4.43-.61 1-.61 1.72V134h-1.21Zm11.29.13c-.6 0-1.16-.07-1.68-.23-.52-.18-.95-.41-1.3-.71l.43-.85c.37.28.77.5 1.2.64.44.14.9.21 1.36.21.6 0 1.05-.1 1.35-.31.31-.22.47-.53.47-.9 0-.3-.1-.52-.3-.7-.2-.18-.5-.31-.95-.41l-1.4-.29a2.79 2.79 0 0 1-1.43-.7 1.8 1.8 0 0 1-.48-1.3c0-.44.11-.82.34-1.15.23-.34.57-.6 1-.8a4.34 4.34 0 0 1 3.06-.05c.48.17.87.4 1.18.72l-.44.83a3.2 3.2 0 0 0-2.22-.87c-.59 0-1.03.13-1.33.37-.3.23-.44.53-.44.91a1 1 0 0 0 .27.72c.2.18.48.31.87.4l1.4.29a3.1 3.1 0 0 1 1.51.7c.34.31.51.73.51 1.26 0 .46-.12.85-.37 1.19-.25.33-.6.59-1.05.77a4.1 4.1 0 0 1-1.56.26Zm11.52 0c-.74 0-1.3-.2-1.7-.63-.39-.43-.58-1.07-.58-1.93v-4.15h-1.47v-.95h1.47v-2.05l1.21-.35v2.4h2.16v.95h-2.16v4.02c0 .6.1 1.03.3 1.28.21.25.52.38.93.38.2 0 .36-.01.51-.04.15-.05.29-.09.4-.14v1.02c-.13.06-.3.1-.5.13-.2.05-.38.06-.57.06Zm5.59 0c-.72 0-1.35-.15-1.9-.46a3.22 3.22 0 0 1-1.22-1.35 4.68 4.68 0 0 1-.44-2.08c0-.81.15-1.51.44-2.09.29-.58.7-1.03 1.23-1.34a3.64 3.64 0 0 1 1.89-.48c.73 0 1.36.17 1.89.48.54.31.95.76 1.24 1.34.3.58.45 1.28.45 2.09 0 .8-.15 1.49-.45 2.08-.29.58-.7 1.03-1.24 1.35-.53.31-1.16.47-1.9.47Zm0-.98c.72 0 1.29-.25 1.7-.74.43-.5.64-1.22.64-2.17 0-.97-.22-1.69-.65-2.18a2.1 2.1 0 0 0-1.7-.75 2.1 2.1 0 0 0-1.69.75c-.42.49-.63 1.22-.63 2.18 0 .94.21 1.67.63 2.17.42.49.99.74 1.7.74Zm9.36.85v-5.72l-.03-.91c-.01-.31-.03-.61-.06-.9h1.17l.15 1.83-.21.01a2.33 2.33 0 0 1 1.41-1.75c.34-.15.7-.22 1.06-.22l.4.01c.11.01.22.04.32.08l-.01 1.07a2.58 2.58 0 0 0-.84-.12c-.44 0-.83.11-1.16.32a2.12 2.12 0 0 0-.97 1.86V134h-1.23Zm8.73.13a3.77 3.77 0 0 1-2.79-1.01 3.9 3.9 0 0 1-1.02-2.87c0-.79.15-1.47.45-2.06.3-.58.72-1.04 1.26-1.36a3.5 3.5 0 0 1 1.86-.5c.7 0 1.27.15 1.74.44.47.29.83.7 1.08 1.24.25.53.38 1.17.38 1.9v.44h-5.84v-.76h5.04l-.25.2c0-.8-.18-1.43-.54-1.88-.36-.45-.9-.67-1.6-.67-.76 0-1.34.26-1.76.79a3.27 3.27 0 0 0-.63 2.12v.13c0 .94.23 1.66.69 2.15.47.47 1.12.72 1.96.72a3.54 3.54 0 0 0 2.4-.87l.42.85a3.4 3.4 0 0 1-1.26.75 4.9 4.9 0 0 1-1.59.25Zm7.32 0c-.6 0-1.16-.07-1.68-.23-.52-.18-.95-.41-1.29-.71l.42-.85c.37.28.77.5 1.2.64.44.14.9.21 1.37.21.6 0 1.05-.1 1.35-.31.3-.22.46-.53.46-.9 0-.3-.1-.52-.3-.7-.19-.18-.5-.31-.94-.41l-1.4-.29a2.79 2.79 0 0 1-1.44-.7 1.8 1.8 0 0 1-.48-1.3c0-.44.12-.82.35-1.15.23-.34.56-.6 1-.8a4.34 4.34 0 0 1 3.06-.05c.47.17.86.4 1.17.72l-.43.83c-.3-.28-.65-.5-1.04-.64a3.2 3.2 0 0 0-1.18-.22c-.6 0-1.04.12-1.34.36-.29.23-.43.53-.43.91a1 1 0 0 0 .27.72c.19.18.48.31.87.4l1.4.29a3.1 3.1 0 0 1 1.5.7c.35.31.52.73.52 1.26 0 .46-.13.85-.38 1.19-.25.33-.6.59-1.05.77a4.1 4.1 0 0 1-1.56.26Zm8.03 0c-.72 0-1.35-.15-1.89-.46a3.22 3.22 0 0 1-1.23-1.35 4.68 4.68 0 0 1-.44-2.08c0-.81.15-1.51.44-2.09.29-.58.7-1.03 1.23-1.34a3.64 3.64 0 0 1 1.89-.48c.73 0 1.36.17 1.89.48.54.31.95.76 1.25 1.34.3.58.44 1.28.44 2.09 0 .8-.14 1.49-.44 2.08-.3.58-.71 1.03-1.25 1.35-.53.31-1.16.47-1.89.47Zm0-.98c.72 0 1.29-.25 1.71-.74.42-.5.63-1.22.63-2.17 0-.97-.21-1.69-.64-2.18a2.1 2.1 0 0 0-1.7-.75 2.1 2.1 0 0 0-1.7.75c-.41.49-.63 1.22-.63 2.18 0 .94.22 1.67.63 2.17.43.49.99.74 1.7.74Zm5.48.85v-11.04h1.21V134h-1.21Zm5.8 0-3.23-7.53h1.32l2.7 6.63h-.4l2.72-6.63h1.26L378.1 134h-1.16Zm8.99.13a3.77 3.77 0 0 1-2.8-1.01 3.9 3.9 0 0 1-1.01-2.87c0-.79.14-1.47.44-2.06.3-.58.73-1.04 1.26-1.36a3.5 3.5 0 0 1 1.87-.5c.69 0 1.26.15 1.74.44.46.29.82.7 1.07 1.24.25.53.38 1.17.38 1.9v.44h-5.83v-.76h5.03l-.25.2c0-.8-.18-1.43-.54-1.88-.36-.45-.9-.67-1.6-.67-.75 0-1.34.26-1.76.79a3.27 3.27 0 0 0-.63 2.12v.13c0 .94.23 1.66.69 2.15.47.47 1.13.72 1.96.72a3.54 3.54 0 0 0 2.4-.87l.43.85a3.4 3.4 0 0 1-1.26.75 4.9 4.9 0 0 1-1.6.25ZM301.68 152v-7.53h1.21V152h-1.21Zm-.16-9.24v-1.36h1.5v1.36h-1.5Zm6.23 9.38c-.6 0-1.16-.08-1.68-.24-.52-.18-.95-.41-1.29-.71l.42-.85c.37.28.77.5 1.2.64.44.14.9.21 1.37.21.6 0 1.05-.1 1.35-.31.3-.22.46-.53.46-.9 0-.3-.1-.52-.3-.7-.19-.18-.5-.31-.94-.41l-1.4-.29a2.79 2.79 0 0 1-1.44-.7 1.8 1.8 0 0 1-.48-1.3c0-.44.12-.82.35-1.15.23-.34.56-.6 1-.8a4.34 4.34 0 0 1 3.06-.04c.47.16.86.4 1.17.7l-.43.84c-.3-.28-.65-.5-1.04-.64a3.2 3.2 0 0 0-1.18-.23c-.6 0-1.04.13-1.34.37-.29.22-.43.53-.43.91a1 1 0 0 0 .27.72c.19.18.48.31.87.4l1.4.29a3.1 3.1 0 0 1 1.5.7c.35.31.52.73.52 1.26 0 .46-.13.85-.38 1.19-.25.33-.6.59-1.05.77a4.1 4.1 0 0 1-1.56.26Zm7.45 0c-.6 0-1.16-.08-1.68-.24-.52-.18-.95-.41-1.3-.71l.43-.85c.37.28.77.5 1.2.64.44.14.9.21 1.36.21.6 0 1.05-.1 1.35-.31.31-.22.47-.53.47-.9 0-.3-.1-.52-.3-.7-.2-.18-.5-.31-.95-.41l-1.4-.29a2.79 2.79 0 0 1-1.43-.7 1.8 1.8 0 0 1-.48-1.3c0-.44.11-.82.34-1.15.23-.34.57-.6 1-.8a4.34 4.34 0 0 1 3.06-.04c.48.16.87.4 1.18.7l-.44.84a3.2 3.2 0 0 0-2.22-.87c-.59 0-1.03.12-1.33.36-.3.23-.44.54-.44.92a1 1 0 0 0 .27.72c.2.18.48.31.87.4l1.4.29a3.1 3.1 0 0 1 1.51.7c.34.31.51.73.51 1.26 0 .46-.12.85-.37 1.19-.25.33-.6.59-1.05.77a4.1 4.1 0 0 1-1.56.26Zm7.59 0c-.9 0-1.57-.25-2.03-.74-.45-.49-.67-1.24-.67-2.25v-4.68h1.21v4.65c0 .69.14 1.2.42 1.53.28.32.72.48 1.3.48.67 0 1.2-.22 1.6-.64.4-.44.6-1.01.6-1.73v-4.29h1.21V152h-1.18v-1.7h.2a2.69 2.69 0 0 1-2.66 1.83Zm9.34 0a3.77 3.77 0 0 1-2.79-1.02 3.9 3.9 0 0 1-1.02-2.87c0-.79.15-1.47.45-2.06.3-.59.72-1.04 1.26-1.36a3.5 3.5 0 0 1 1.86-.5c.7 0 1.27.15 1.74.44.47.29.83.7 1.08 1.24.25.53.38 1.17.38 1.9v.44h-5.84v-.76h5.04l-.25.2c0-.8-.18-1.43-.54-1.88-.36-.45-.9-.67-1.6-.67-.76 0-1.34.26-1.76.79a3.27 3.27 0 0 0-.63 2.12v.13c0 .94.23 1.66.69 2.15.47.47 1.12.72 1.96.72a3.54 3.54 0 0 0 2.4-.87l.42.85a3.4 3.4 0 0 1-1.26.75 4.9 4.9 0 0 1-1.59.25Zm7.32 0c-.6 0-1.16-.08-1.68-.24-.52-.18-.95-.41-1.29-.71l.42-.85c.37.28.77.5 1.2.64.44.14.9.21 1.37.21.6 0 1.05-.1 1.35-.31.3-.22.46-.53.46-.9 0-.3-.1-.52-.3-.7-.19-.18-.5-.31-.94-.41l-1.4-.29a2.79 2.79 0 0 1-1.44-.7 1.8 1.8 0 0 1-.48-1.3c0-.44.12-.82.35-1.15.23-.34.56-.6 1-.8a4.34 4.34 0 0 1 3.06-.04c.47.16.86.4 1.17.7l-.43.84c-.3-.28-.65-.5-1.04-.64a3.2 3.2 0 0 0-1.18-.23c-.6 0-1.04.13-1.34.37-.29.22-.43.53-.43.91a1 1 0 0 0 .27.72c.19.18.48.31.87.4l1.4.29a3.1 3.1 0 0 1 1.5.7c.35.31.52.73.52 1.26 0 .46-.13.85-.38 1.19-.25.33-.6.59-1.05.77a4.1 4.1 0 0 1-1.56.26Z"/></g><defs><clipPath id="a"><path fill="#fff" d="M0-119h648v527H0z"/></clipPath></defs></svg>