<svg width="189" height="137" viewBox="0 0 189 137" fill="none" xmlns="http://www.w3.org/2000/svg">
<path d="M183.287 14.4399H16.6172V121.22H183.287V14.4399Z" stroke="black" stroke-width="5"/>
<path fill-rule="evenodd" clip-rule="evenodd" d="M33.1483 34.5V101.203H45.8493V51.474L58.8313 101.203H59.5227H71.2337H71.9251L84.9071 51.474V101.203H97.6081V34.5H89.3386H84.907H76.9363L65.3773 78.773L53.8183 34.5H45.8476H41.416H33.1465H33.1483ZM110.652 34.5312L110.568 101.224L138.49 101.14C159.646 101.14 167.097 85.2523 167.097 67.8763C167.097 50.3073 159.658 34.5303 138.49 34.5303L110.652 34.5312ZM124.527 46.3753H138.32C148.808 46.3753 152.492 56.6283 152.492 68.0433C152.492 79.3323 150.346 89.6543 138.32 89.6543L124.486 89.7089L124.527 46.3753Z" fill="black"/>
</svg>
