<svg xmlns="http://www.w3.org/2000/svg" width="958" height="858" fill="none"><path fill="#004F75" fill-opacity=".1" fill-rule="evenodd" d="M939.74 392.47c-65.308 50.031-131.517 99.005-200.844 140.293-114.612 68.257-104.164-44.854-43.248-123.936 38.037-49.378 111.195-111.049 108.204-181.513-3.811-89.827-75.471-84.675-123.285-44.327-107.608 90.804-213.886 183.169-323.495 271.172 38.417-61.669 199.265-259.851 101.658-324.371-63.859-42.224-192.231 90.847-233.386 132.181C168.764 318.792 75.42 418.473 0 497.258l2.8-147.577c.962-50.723 24.097-98.007 62.46-127.659l247.873-191.59C342.944 7.393 379.584-3.143 416.137.818l303.936 32.928c47.04 5.097 89.108 33.634 113.576 77.045l102.646 182.114c14.604 25.911 21.846 55.147 21.703 84.364-10.488 8.765-17.646 14.732-18.258 15.202Zm-27.903 112.29-99.154 181.601c-19.995 36.621-52.629 63.314-90.834 74.299l-319.417 91.841c-38.205 10.985-78.905 5.377-113.284-15.609L74.758 706.021c-29.738-18.153-52.252-46.24-64.796-79.074 14.045-15.338 26.454-28.893 28.02-30.633 34.457-38.278 247.53-262.007 247.53-262.007s-99.437 203.311-107.76 222.389c-46.426 106.398 15.683 209.196 111.008 117.457 98.147-94.451 190.593-198.001 291.616-288.779-94.735 85.125-164.814 438.287 45.488 322.382 100.452-55.363 192.994-129.707 285.973-202.996Z" clip-rule="evenodd"/></svg>