<?xml version="1.0" encoding="UTF-8"?>
<svg width="60px" height="49px" viewBox="0 0 60 49" version="1.1" xmlns="http://www.w3.org/2000/svg" xmlns:xlink="http://www.w3.org/1999/xlink">
    <!-- Generator: Sketch 52.6 (67491) - http://www.bohemiancoding.com/sketch -->
    <title>Shape</title>
    <desc>Created with Sketch.</desc>
    <g id="Welcome" stroke="none" stroke-width="1" fill="none" fill-rule="evenodd">
        <g id="services-v0.3" transform="translate(-690.000000, -2533.000000)" fill="#E74B00">
            <g id="footer" transform="translate(0.000000, 2116.000000)">
                <g id="site-info" transform="translate(0.000000, 392.000000)">
                    <g id="emblem" transform="translate(690.365854, 25.000000)">
                        <path d="M57.8753974,22.4137628 C53.8532991,25.2710259 49.7757205,28.0679037 45.5060979,30.4258488 C38.4475417,34.3239869 39.0910267,27.8642433 42.8426007,23.3479526 C45.1852153,20.5280018 49.6907159,17.0059641 49.5065647,12.9818008 C49.2717996,7.85180109 44.8585589,8.14606541 41.9138595,10.450313 C35.2866274,15.6361044 28.7413358,20.9110145 21.9908859,25.9368367 C24.3568419,22.4149224 34.2629236,11.0968552 28.2516583,7.41213268 C24.3187586,5.00074522 16.4127874,12.6003928 13.8781592,14.9609258 C10.3936075,18.2060778 4.64486004,23.8988028 0,28.3981857 L0.17241027,19.9701214 C0.23166832,17.0733645 1.65647684,14.3729683 4.01912407,12.6795619 L19.284822,1.73800907 C21.1207623,0.422115199 23.3772816,-0.179528561 25.6284679,0.0466363787 L44.3469033,1.92717986 C47.2439251,2.21822852 49.8347509,3.84795742 51.3416433,6.32714 L57.6632343,16.7276021 C58.5626683,18.2073766 59.0086614,19.8770552 58.9998726,21.5455882 C58.3539626,22.0461504 57.9131428,22.3869488 57.8753974,22.4137628 Z M56.1569758,28.8266124 L50.0503818,39.197798 C48.8189775,41.2891639 46.8091505,42.8136183 44.4562276,43.4409656 L24.7844518,48.685947 C22.4315289,49.3132943 19.924954,48.9930242 17.8076491,47.7945069 L4.60414054,40.3205557 C2.77261918,39.2838084 1.38607291,37.6798197 0.613521036,35.8046489 C1.47852252,34.9287103 2.24277052,34.154574 2.33915519,34.0552539 C4.46125156,31.8691936 17.583695,19.0921311 17.583695,19.0921311 C17.583695,19.0921311 11.4597248,30.703115 10.9471696,31.792649 C8.08795356,37.8689911 11.9130167,43.7397423 17.7837704,38.5006069 C23.8282737,33.1065422 29.5217269,27.1928574 35.7434083,22.0085545 C29.9090208,26.8699962 25.5930752,47.0388887 38.5448302,40.4196196 C44.7313316,37.2578773 50.4307324,33.0121326 56.1569753,28.8266127 L56.1569758,28.8266124 Z" id="Shape"></path>
                    </g>
                </g>
            </g>
        </g>
    </g>
</svg>