<?xml version="1.0" encoding="UTF-8"?>
<svg width="252px" height="30px" viewBox="0 0 252 30" version="1.1" xmlns="http://www.w3.org/2000/svg" xmlns:xlink="http://www.w3.org/1999/xlink">
    <!-- Generator: Sketch 52.6 (67491) - http://www.bohemiancoding.com/sketch -->
    <title>logo</title>
    <desc>Created with Sketch.</desc>
    <g id="Welcome" stroke="none" stroke-width="1" fill="none" fill-rule="evenodd">
        <g id="Desktop" transform="translate(-238.000000, -22.000000)">
            <g id="header">
                <g id="logo" transform="translate(238.000000, 22.000000)">
                    <g id="emblem" transform="translate(0.365854, 0.000000)" fill="#E74B00">
                        <path d="M34.9448727,13.5906148 C32.5244845,15.3185786 30.0707098,17.0100237 27.5013682,18.4360191 C23.2537231,20.7934645 23.6409547,16.8868577 25.8985489,14.1555772 C27.3082699,12.4501784 30.0195564,10.3201842 29.9087392,7.88652361 C29.767464,4.78409528 27.1116971,4.96205513 25.3396579,6.35557626 C21.3515718,9.4917453 17.4127953,12.6818099 13.35056,15.7212357 C14.7743273,13.5913161 20.735535,6.74658032 17.1181208,4.51820058 C14.7514098,3.05988534 9.99381373,7.65586257 8.46854416,9.083423 C6.37163674,11.0459672 2.91219854,14.4887104 0.117049443,17.2097657 L0.220801204,12.1127936 C0.256461069,10.3609454 1.11387167,8.72784868 2.53564783,7.70374106 L11.7221252,1.08670685 C12.8269436,0.290904383 14.1848549,-0.0729468358 15.5395569,0.063829101 L26.8037968,1.20111014 C28.5471449,1.37712527 30.1062326,2.36272321 31.0130391,3.86203835 L34.8171987,10.1518415 C35.3584534,11.0467527 35.6268398,12.0565107 35.6215509,13.0655759 C35.2328601,13.3682968 34.9675868,13.5743987 34.9448727,13.5906148 Z M33.9107738,17.4688618 L30.2359934,23.7409597 C29.4949681,25.0057381 28.2855095,25.92767 26.8695852,26.3070658 L15.0316513,29.4790306 C13.6157269,29.8584264 12.1073391,29.6647392 10.8332032,28.9399216 L2.88769466,24.4199607 C1.78553545,23.7929755 0.951150017,22.8229443 0.486249537,21.6889124 C1.00678365,21.1591781 1.46668709,20.69101 1.52468874,20.630945 C2.801708,19.308899 10.6984338,11.5818185 10.6984338,11.5818185 C10.6984338,11.5818185 7.01319683,18.6036991 6.70475515,19.2626078 C4.98415757,22.9373479 7.28597539,26.4877545 10.8188336,23.3193251 C14.4562495,20.0572003 17.8824132,16.4808291 21.62645,13.3455603 C18.115476,16.2855749 15.5182586,28.4829526 23.3122687,24.4798708 C27.0351352,22.5677695 30.4648779,20.000105 33.9107735,17.4688621 L33.9107738,17.4688618 Z" id="Shape"></path>
                    </g>
                    <g id="text" transform="translate(43.170732, 2.926829)">
                        <g id="mantra" fill="#000000">
                            <path d="M18.0932927,4.3902439 C19.7643376,4.3902439 21.007999,4.89504655 21.824314,5.90466698 C22.6406291,6.91428741 23.0487805,8.45754121 23.0487805,10.5344747 L23.0487805,19.3902439 L18.6983232,19.3902439 L18.6983232,10.6787054 C18.6983232,9.65946958 18.5350626,8.92390001 18.2085366,8.47197467 C17.8820106,8.02004934 17.3442111,7.79409006 16.595122,7.79409006 C15.7115809,7.79409006 15.029728,8.10177929 14.5495427,8.71716698 C14.0693574,9.33255467 13.8292683,10.1979306 13.8292683,11.3133208 L13.8292683,19.3902439 L9.47881098,19.3902439 L9.47881098,10.6787054 C9.47881098,9.67870044 9.31074863,8.94793852 8.9746189,8.48639775 C8.63848917,8.02485698 8.10549145,7.79409006 7.37560976,7.79409006 C6.49206875,7.79409006 5.80541403,8.10177929 5.315625,8.71716698 C4.82583597,9.33255467 4.58094512,10.1979306 4.58094512,11.3133208 L4.58094512,19.3902439 L0.230487805,19.3902439 L0.230487805,8.94793621 C0.230487805,7.39023611 0.153659305,5.99601929 0,4.7652439 L4.09115854,4.7652439 L4.35045732,6.95755159 C4.79222782,6.13062438 5.4116576,5.49601534 6.20876524,5.05370544 C7.00587289,4.61139554 7.92301311,4.3902439 8.96021341,4.3902439 C11.1306511,4.3902439 12.5711855,5.29408102 13.2818598,7.10178236 C13.7620451,6.27485515 14.4294927,5.61620789 15.2842226,5.12582083 C16.1389524,4.63543376 17.0752998,4.3902439 18.0932927,4.3902439 Z" id="Path"></path>
                            <path d="M40.9756098,4.75956208 L40.9756098,19.1629712 L36.6800897,19.1629712 L36.6800897,17.0322894 C36.2380429,17.7709294 35.613421,18.3485752 34.8062051,18.7652439 C33.9989892,19.1819127 33.0860802,19.3902439 32.0674507,19.3902439 C30.7989686,19.3902439 29.6794539,19.0872166 28.7088729,18.481153 C27.7382919,17.8750894 26.979136,17.0086207 26.4313824,15.8817212 C25.8836288,14.7548216 25.6097561,13.4527513 25.6097561,11.9754712 C25.6097561,10.4981911 25.8836288,9.18191635 26.4313824,8.02660754 C26.979136,6.87129873 27.7430967,5.97642132 28.7232874,5.34194845 C29.7034781,4.70747558 30.8181881,4.3902439 32.0674507,4.3902439 C33.0860802,4.3902439 33.9989892,4.60804475 34.8062051,5.04365299 C35.613421,5.47926123 36.2380429,6.06637657 36.6800897,6.80501663 L36.6800897,4.75956208 L40.9756098,4.75956208 Z M33.3208255,16.097561 C34.3714874,16.097561 35.1782336,15.7386913 35.7410882,15.0209411 C36.3039428,14.303191 36.5853659,13.2643576 36.5853659,11.90441 C36.5853659,10.5444623 36.3039428,9.50090698 35.7410882,8.77371274 C35.1782336,8.0465185 34.3714874,7.68292683 33.3208255,7.68292683 C32.2701636,7.68292683 31.4540367,8.06068441 30.8724203,8.81621089 C30.2908038,9.57173737 30,10.6200146 30,11.9610742 C30,13.3021337 30.2861135,14.3268011 30.858349,15.0351072 C31.4305845,15.7434132 32.2514018,16.097561 33.3208255,16.097561 Z" id="Combined-Shape"></path>
                            <path d="M53.4102527,4.3902439 C56.8278249,4.3902439 58.5365854,6.43830034 58.5365854,10.5344747 L58.5365854,19.3902439 L54.2361618,19.3902439 L54.2361618,10.7363977 C54.2361618,9.71716188 54.0510461,8.97197703 53.6808091,8.50082083 C53.3105721,8.02966462 52.7267456,7.79409006 51.9293121,7.79409006 C50.9799865,7.79409006 50.2205374,8.10177929 49.650942,8.71716698 C49.0813466,9.33255467 48.7965532,10.1594695 48.7965532,11.1979362 L48.7965532,19.3902439 L44.4961297,19.3902439 L44.4961297,8.94793621 C44.4961297,7.39023611 44.4201848,5.99601929 44.2682927,4.7652439 L48.3123996,4.7652439 L48.5971959,7.07293621 C49.1098317,6.20754727 49.7790962,5.54409236 50.6050095,5.08255159 C51.4309228,4.62101083 52.3659945,4.3902439 53.4102527,4.3902439 Z" id="Path"></path>
                            <path d="M67.3355605,7.97753812 L67.3355605,13.5703318 C67.3355605,14.3652506 67.5424863,14.947236 67.9563441,15.3163054 C68.3702019,15.6853748 68.9063278,15.8699068 69.5647379,15.8699068 C69.9785957,15.8699068 70.4488816,15.8036646 70.9756098,15.6711781 L70.9756098,18.9927865 C70.2983879,19.2577594 69.4800904,19.3902439 68.5206928,19.3902439 C66.7523913,19.3902439 65.4026707,18.8886955 64.4714907,17.8855837 C63.5403106,16.8824719 63.0747276,15.4724585 63.0747276,13.6555012 L63.0747276,7.97753812 L60.3658537,7.97753812 L60.3658537,4.76948898 L63.0747276,4.76948898 L63.0747276,1.39110095 L67.3355605,0 L67.3355605,4.76948898 L70.9756098,4.76948898 L70.9756098,7.97753812 L67.3355605,7.97753812 Z" id="Path"></path>
                            <path d="M81.8651363,4.3902439 C82.4772867,4.3902439 82.9937808,4.48658205 83.4146341,4.67926124 L83.3859397,8.66770055 C82.6781409,8.34014593 81.9703527,8.17637107 81.2625538,8.17637107 C80.1147719,8.17637107 79.2396013,8.48947006 78.6370158,9.11567743 C78.0344303,9.7418848 77.733142,10.6137451 77.733142,11.7312844 L77.733142,19.3902439 L73.4002869,19.3902439 L73.4002869,8.92781616 C73.4002869,7.36711471 73.3237693,5.97021153 73.1707317,4.73706471 L77.2453372,4.73706471 L77.5322812,7.25151558 C77.8957455,6.32665546 78.4648455,5.61857006 79.2395983,5.12723812 C80.0143511,4.63590619 80.8895217,4.3902439 81.8651363,4.3902439 Z" id="Path"></path>
                            <path d="M99.5121951,4.75956208 L99.5121951,19.1629712 L95.2166751,19.1629712 L95.2166751,17.0322894 C94.7746283,17.7709294 94.1500063,18.3485752 93.3427905,18.7652439 C92.5355746,19.1819127 91.6226656,19.3902439 90.6040361,19.3902439 C89.335554,19.3902439 88.2160393,19.0872166 87.2454583,18.481153 C86.2748773,17.8750894 85.5157214,17.0086207 84.9679678,15.8817212 C84.4202142,14.7548216 84.1463415,13.4527513 84.1463415,11.9754712 C84.1463415,10.4981911 84.4202142,9.18191635 84.9679678,8.02660754 C85.5157214,6.87129873 86.2796821,5.97642132 87.2598728,5.34194845 C88.2400635,4.70747558 89.3547734,4.3902439 90.6040361,4.3902439 C91.6226656,4.3902439 92.5355746,4.60804475 93.3427905,5.04365299 C94.1500063,5.47926123 94.7746283,6.06637657 95.2166751,6.80501663 L95.2166751,4.75956208 L99.5121951,4.75956208 Z M91.8574109,16.097561 C92.9080728,16.097561 93.7148189,15.7386913 94.2776735,15.0209411 C94.8405281,14.303191 95.1219512,13.2643576 95.1219512,11.90441 C95.1219512,10.5444623 94.8405281,9.50090698 94.2776735,8.77371274 C93.7148189,8.0465185 92.9080728,7.68292683 91.8574109,7.68292683 C90.806749,7.68292683 89.990622,8.06068441 89.4090056,8.81621089 C88.8273892,9.57173737 88.5365854,10.6200146 88.5365854,11.9610742 C88.5365854,13.3021337 88.8226988,14.3268011 89.3949343,15.0351072 C89.9671698,15.7434132 90.7879871,16.097561 91.8574109,16.097561 Z" id="Combined-Shape"></path>
                        </g>
                        <g id="systems" transform="translate(103.536585, 0.365854)" fill="#E74B00">
                            <path d="M5.50205892,19.3902439 C3.18339037,19.3902439 1.34938907,18.7460196 0,17.4575516 L0.6271777,16.1017824 C1.3873969,16.7364009 2.15235599,17.1883195 2.92207792,17.4575516 C3.69179986,17.7267837 4.58029271,17.8613977 5.58758315,17.8613977 C6.7659229,17.8613977 7.66391836,17.654669 8.28159645,17.2412054 C8.89927455,16.8277418 9.20810896,16.2267863 9.20810896,15.4383208 C9.20810896,14.7844714 9.00380312,14.2700535 8.5951853,13.8950516 C8.18656748,13.5200497 7.51663437,13.2171681 6.58536585,12.9863977 L4.16217928,12.4383208 C3.02185049,12.1690887 2.12385504,11.6883243 1.46816598,10.9960131 C0.812476924,10.303702 0.484637314,9.49601775 0.484637314,8.57293621 C0.484637314,7.30369909 0.964518483,6.28928616 1.92429522,5.52966698 C2.88407195,4.7700478 4.1621713,4.3902439 5.75863161,4.3902439 C6.76592205,4.3902439 7.70192789,4.55370381 8.56667723,4.88062852 C9.43142656,5.20755323 10.1488727,5.67870236 10.7190371,6.29409006 L10.0633513,7.64985929 C8.75197317,6.49600736 7.31708096,5.91909006 5.75863161,5.91909006 C4.65631378,5.91909006 3.80108001,6.14024169 3.19290466,6.58255159 C2.5847293,7.0248615 2.28064618,7.64023996 2.28064618,8.42870544 C2.28064618,9.08255486 2.47544943,9.61139573 2.86506177,10.0152439 C3.25467411,10.4190921 3.85808904,10.717166 4.67532468,10.9094747 L7.12701932,11.5152439 C9.69275911,12.0921699 10.9756098,13.3710032 10.9756098,15.3517824 C10.9756098,16.5633269 10.4814747,17.5392787 9.49318974,18.279667 C8.50490478,19.0200553 7.17454115,19.3902439 5.50205892,19.3902439 Z" id="Path"></path>
                            <path d="M27.0731707,4.3902439 L20.3773021,20.5089118 C19.7152779,22.1023264 18.8877601,23.2730799 17.8947237,24.0212075 C16.9016874,24.769335 15.6580463,25.2988459 14.1637631,25.6097561 L13.8232952,24.2106674 C15.1851736,23.8803253 16.2112957,23.4528303 16.9016924,22.9281694 C17.5920891,22.4035085 18.1737159,21.5776658 18.6465903,20.4506165 L19.2424092,19.0223801 L13.1707317,4.3902439 L15.0149328,4.3902439 L20.1503235,17.2152238 L25.3140866,4.3902439 L27.0731707,4.3902439 Z" id="Path"></path>
                            <path d="M34.4044979,19.3902439 C32.0858294,19.3902439 30.2518281,18.7460196 28.902439,17.4575516 L29.5296167,16.1017824 C30.2898359,16.7364009 31.054795,17.1883195 31.8245169,17.4575516 C32.5942389,17.7267837 33.4827317,17.8613977 34.4900222,17.8613977 C35.6683619,17.8613977 36.5663574,17.654669 37.1840355,17.2412054 C37.8017136,16.8277418 38.110548,16.2267863 38.110548,15.4383208 C38.110548,14.7844714 37.9062421,14.2700535 37.4976243,13.8950516 C37.0890065,13.5200497 36.4190734,13.2171681 35.4878049,12.9863977 L33.0646183,12.4383208 C31.9242895,12.1690887 31.0262941,11.6883243 30.370605,10.9960131 C29.7149159,10.303702 29.3870763,9.49601775 29.3870763,8.57293621 C29.3870763,7.30369909 29.8669575,6.28928616 30.8267342,5.52966698 C31.786511,4.7700478 33.0646103,4.3902439 34.6610706,4.3902439 C35.6683611,4.3902439 36.6043669,4.55370381 37.4691162,4.88062852 C38.3338656,5.20755323 39.0513117,5.67870236 39.6214761,6.29409006 L38.9657903,7.64985929 C37.6544122,6.49600736 36.21952,5.91909006 34.6610706,5.91909006 C33.5587528,5.91909006 32.703519,6.14024169 32.0953437,6.58255159 C31.4871683,7.0248615 31.1830852,7.64023996 31.1830852,8.42870544 C31.1830852,9.08255486 31.3778885,9.61139573 31.7675008,10.0152439 C32.1571131,10.4190921 32.7605281,10.717166 33.5777637,10.9094747 L36.0294583,11.5152439 C38.5951981,12.0921699 39.8780488,13.3710032 39.8780488,15.3517824 C39.8780488,16.5633269 39.3839137,17.5392787 38.3956288,18.279667 C37.4073438,19.0200553 36.0769802,19.3902439 34.4044979,19.3902439 Z" id="Path"></path>
                            <path d="M46.6344631,5.99547511 L46.6344631,14.7108487 C46.6344631,15.8807033 46.8530228,16.6898407 47.2901489,17.138285 C47.7272749,17.5867292 48.3734515,17.810948 49.2286981,17.810948 C49.7608516,17.810948 50.2739918,17.7232102 50.7681343,17.547732 L50.7681343,19.1562741 C50.1599589,19.3122548 49.5422901,19.3902439 48.9151093,19.3902439 C47.6607476,19.3902439 46.6772288,19.0295441 45.9645233,18.3081338 C45.2518178,17.5867234 44.8954704,16.5046241 44.8954704,15.0618033 L44.8954704,5.99547511 L42.0731707,5.99547511 L42.0731707,4.56241033 L44.8954704,4.56241033 L44.8954704,0.672663061 L46.6344631,0 L46.6344631,4.56241033 L50.8536585,4.56241033 L50.8536585,5.99547511 L46.6344631,5.99547511 Z" id="Path"></path>
                            <path d="M54.8945287,11.7460131 L54.8945287,11.8325516 C54.8945287,13.774869 55.3415413,15.2604311 56.2355801,16.2892824 C57.1296188,17.3181337 58.4322041,17.8325516 60.1433751,17.8325516 C61.8737727,17.8325516 63.4599466,17.2364037 64.9019446,16.0440901 L65.5941002,17.4287054 C64.9596211,18.0248623 64.1521143,18.500819 63.1715557,18.8565901 C62.1909971,19.2123611 61.1816136,19.3902439 60.1433751,19.3902439 C57.9515382,19.3902439 56.2211665,18.726789 54.9522083,17.3998593 C53.6832501,16.0729296 53.0487805,14.2460248 53.0487805,11.9190901 C53.0487805,10.4383134 53.3323692,9.12582655 53.899555,7.98159006 C54.4667409,6.83735357 55.2598279,5.95274703 56.2788398,5.3277439 C57.2978517,4.70274078 58.4706592,4.3902439 59.7972973,4.3902439 C61.7007346,4.3902439 63.1859703,5.00562236 64.2530488,6.23639775 C65.3201273,7.46717313 65.8536585,9.17869448 65.8536585,11.3710131 L65.8536585,11.7460131 L54.8945287,11.7460131 Z M59.6525541,5.85365854 C58.3294918,5.85365854 57.2557182,6.23803259 56.4312011,7.00679222 C55.606684,7.77555185 55.0889718,8.8545778 54.8780488,10.2439024 L64.0243902,10.2439024 C63.9093413,8.81752914 63.4779145,7.72924117 62.7300966,6.97900587 C61.9822788,6.22877056 60.9564416,5.85365854 59.6525541,5.85365854 Z" id="Combined-Shape"></path>
                            <path d="M84.8708752,4.02439024 C88.0464052,4.02439024 89.6341463,5.91520954 89.6341463,9.69690486 L89.6341463,19.0243902 L87.8837877,19.0243902 L87.8837877,9.81386393 C87.8837877,8.33237504 87.6255406,7.25538776 87.1090387,6.58286978 C86.5925369,5.91035179 85.7699722,5.57409785 84.6413199,5.57409785 C83.3213707,5.57409785 82.2836001,6.02243644 81.527977,6.91912709 C80.7723539,7.81581773 80.3945481,9.03412913 80.3945481,10.5740978 L80.3945481,19.0243902 L78.6441894,19.0243902 L78.6441894,9.81386393 C78.6441894,8.33237504 78.38116,7.25538776 77.8550933,6.58286978 C77.3290265,5.91035179 76.5016795,5.57409785 75.3730273,5.57409785 C74.0722077,5.57409785 73.0344372,6.02243644 72.2596844,6.91912709 C71.4849316,7.81581773 71.097561,9.03412913 71.097561,10.5740978 L71.097561,19.0243902 L69.3758967,19.0243902 L69.3758967,8.43959492 C69.3758967,6.91911948 69.2993791,5.5643572 69.1463415,4.37526744 L70.8106169,4.37526744 L71.0401722,7.00684638 C71.4418958,6.03218264 72.03969,5.29144931 72.8335725,4.78462416 C73.6274549,4.27779902 74.5504491,4.02439024 75.6025825,4.02439024 C77.917276,4.02439024 79.3998055,4.97954638 80.0502152,6.88988732 C80.4519389,5.99319668 81.0784271,5.29144931 81.9296987,4.78462416 C82.7809703,4.27779902 83.7613527,4.02439024 84.8708752,4.02439024 Z" id="Path"></path>
                            <path d="M99.1605955,19.3902439 C96.841927,19.3902439 95.0079257,18.7460196 93.6585366,17.4575516 L94.2857143,16.1017824 C95.0459335,16.7364009 95.8108926,17.1883195 96.5806145,17.4575516 C97.3503364,17.7267837 98.2388293,17.8613977 99.2461197,17.8613977 C100.424459,17.8613977 101.322455,17.654669 101.940133,17.2412054 C102.557811,16.8277418 102.866646,16.2267863 102.866646,15.4383208 C102.866646,14.7844714 102.66234,14.2700535 102.253722,13.8950516 C101.845104,13.5200497 101.175171,13.2171681 100.243902,12.9863977 L97.8207159,12.4383208 C96.6803871,12.1690887 95.7823916,11.6883243 95.1267026,10.9960131 C94.4710135,10.303702 94.1431739,9.49601775 94.1431739,8.57293621 C94.1431739,7.30369909 94.6230551,6.28928616 95.5828318,5.52966698 C96.5426085,4.7700478 97.8207079,4.3902439 99.4171682,4.3902439 C100.424459,4.3902439 101.360464,4.55370381 102.225214,4.88062852 C103.089963,5.20755323 103.807409,5.67870236 104.377574,6.29409006 L103.721888,7.64985929 C102.41051,6.49600736 100.975618,5.91909006 99.4171682,5.91909006 C98.3148504,5.91909006 97.4596166,6.14024169 96.8514412,6.58255159 C96.2432659,7.0248615 95.9391828,7.64023996 95.9391828,8.42870544 C95.9391828,9.08255486 96.133986,9.61139573 96.5235984,10.0152439 C96.9132107,10.4190921 97.5166256,10.717166 98.3338613,10.9094747 L100.785556,11.5152439 C103.351296,12.0921699 104.634146,13.3710032 104.634146,15.3517824 C104.634146,16.5633269 104.140011,17.5392787 103.151726,18.279667 C102.163441,19.0200553 100.833078,19.3902439 99.1605955,19.3902439 Z" id="Path"></path>
                        </g>
                    </g>
                </g>
            </g>
        </g>
    </g>
</svg>